G04 (created by PCBNEW-RS274X (2010-11-03 BZR 2592)-stable) date Sat 17 Mar 2012 17:18:43 COT*
G01*
G70*
G90*
%MOIN*%
G04 Gerber Fmt 3.4, Leading zero omitted, Abs format*
%FSLAX34Y34*%
G04 APERTURE LIST*
%ADD10C,0.006000*%
%ADD11C,0.012000*%
%ADD12C,0.008000*%
G04 APERTURE END LIST*
G54D10*
G54D11*
X74800Y-46900D02*
X73800Y-46900D01*
X74800Y-47900D02*
X74800Y-38900D01*
X74800Y-38900D02*
X73800Y-38900D01*
X73800Y-38900D02*
X73800Y-47900D01*
X73800Y-47900D02*
X74800Y-47900D01*
X73800Y-46900D02*
X72800Y-46900D01*
X73800Y-47900D02*
X73800Y-38900D01*
X73800Y-38900D02*
X72800Y-38900D01*
X72800Y-38900D02*
X72800Y-47900D01*
X72800Y-47900D02*
X73800Y-47900D01*
X73800Y-37900D02*
X72800Y-37900D01*
X73800Y-38900D02*
X73800Y-29900D01*
X73800Y-29900D02*
X72800Y-29900D01*
X72800Y-29900D02*
X72800Y-38900D01*
X72800Y-38900D02*
X73800Y-38900D01*
X74800Y-37900D02*
X73800Y-37900D01*
X74800Y-38900D02*
X74800Y-29900D01*
X74800Y-29900D02*
X73800Y-29900D01*
X73800Y-29900D02*
X73800Y-38900D01*
X73800Y-38900D02*
X74800Y-38900D01*
X56800Y-49900D02*
X56800Y-48900D01*
X55800Y-49900D02*
X63800Y-49900D01*
X63800Y-49900D02*
X63800Y-48900D01*
X63800Y-48900D02*
X55800Y-48900D01*
X55800Y-48900D02*
X55800Y-49900D01*
X65800Y-49900D02*
X65800Y-48900D01*
X64800Y-49900D02*
X72800Y-49900D01*
X72800Y-49900D02*
X72800Y-48900D01*
X72800Y-48900D02*
X64800Y-48900D01*
X64800Y-48900D02*
X64800Y-49900D01*
X46200Y-30900D02*
X46200Y-29900D01*
X45200Y-30900D02*
X53200Y-30900D01*
X53200Y-30900D02*
X53200Y-29900D01*
X53200Y-29900D02*
X45200Y-29900D01*
X45200Y-29900D02*
X45200Y-30900D01*
X54800Y-30900D02*
X54800Y-29900D01*
X53800Y-30900D02*
X61800Y-30900D01*
X61800Y-30900D02*
X61800Y-29900D01*
X61800Y-29900D02*
X53800Y-29900D01*
X53800Y-29900D02*
X53800Y-30900D01*
X63800Y-30900D02*
X63800Y-29900D01*
X62800Y-30900D02*
X70800Y-30900D01*
X70800Y-30900D02*
X70800Y-29900D01*
X70800Y-29900D02*
X62800Y-29900D01*
X62800Y-29900D02*
X62800Y-30900D01*
X47800Y-49900D02*
X47800Y-48900D01*
X46800Y-49900D02*
X54800Y-49900D01*
X54800Y-49900D02*
X54800Y-48900D01*
X54800Y-48900D02*
X46800Y-48900D01*
X46800Y-48900D02*
X46800Y-49900D01*
G54D12*
X59933Y-48262D02*
X59933Y-48548D01*
X59953Y-48605D01*
X59991Y-48643D01*
X60048Y-48662D01*
X60086Y-48662D01*
X59571Y-48262D02*
X59648Y-48262D01*
X59686Y-48281D01*
X59705Y-48300D01*
X59743Y-48357D01*
X59762Y-48433D01*
X59762Y-48586D01*
X59743Y-48624D01*
X59724Y-48643D01*
X59686Y-48662D01*
X59609Y-48662D01*
X59571Y-48643D01*
X59552Y-48624D01*
X59533Y-48586D01*
X59533Y-48490D01*
X59552Y-48452D01*
X59571Y-48433D01*
X59609Y-48414D01*
X59686Y-48414D01*
X59724Y-48433D01*
X59743Y-48452D01*
X59762Y-48490D01*
X69433Y-48362D02*
X69433Y-48648D01*
X69453Y-48705D01*
X69491Y-48743D01*
X69548Y-48762D01*
X69586Y-48762D01*
X69281Y-48362D02*
X69014Y-48362D01*
X69186Y-48762D01*
X49523Y-31012D02*
X49523Y-31298D01*
X49543Y-31355D01*
X49581Y-31393D01*
X49638Y-31412D01*
X49676Y-31412D01*
X49123Y-31412D02*
X49352Y-31412D01*
X49238Y-31412D02*
X49238Y-31012D01*
X49276Y-31069D01*
X49314Y-31107D01*
X49352Y-31126D01*
X48876Y-31012D02*
X48837Y-31012D01*
X48799Y-31031D01*
X48780Y-31050D01*
X48761Y-31088D01*
X48742Y-31164D01*
X48742Y-31260D01*
X48761Y-31336D01*
X48780Y-31374D01*
X48799Y-31393D01*
X48837Y-31412D01*
X48876Y-31412D01*
X48914Y-31393D01*
X48933Y-31374D01*
X48952Y-31336D01*
X48971Y-31260D01*
X48971Y-31164D01*
X48952Y-31088D01*
X48933Y-31050D01*
X48914Y-31031D01*
X48876Y-31012D01*
X58123Y-31012D02*
X58123Y-31298D01*
X58143Y-31355D01*
X58181Y-31393D01*
X58238Y-31412D01*
X58276Y-31412D01*
X57723Y-31412D02*
X57952Y-31412D01*
X57838Y-31412D02*
X57838Y-31012D01*
X57876Y-31069D01*
X57914Y-31107D01*
X57952Y-31126D01*
X57342Y-31412D02*
X57571Y-31412D01*
X57457Y-31412D02*
X57457Y-31012D01*
X57495Y-31069D01*
X57533Y-31107D01*
X57571Y-31126D01*
X67123Y-31012D02*
X67123Y-31298D01*
X67143Y-31355D01*
X67181Y-31393D01*
X67238Y-31412D01*
X67276Y-31412D01*
X66723Y-31412D02*
X66952Y-31412D01*
X66838Y-31412D02*
X66838Y-31012D01*
X66876Y-31069D01*
X66914Y-31107D01*
X66952Y-31126D01*
X66571Y-31050D02*
X66552Y-31031D01*
X66514Y-31012D01*
X66418Y-31012D01*
X66380Y-31031D01*
X66361Y-31050D01*
X66342Y-31088D01*
X66342Y-31126D01*
X66361Y-31183D01*
X66590Y-31412D01*
X66342Y-31412D01*
X50933Y-48362D02*
X50933Y-48648D01*
X50953Y-48705D01*
X50991Y-48743D01*
X51048Y-48762D01*
X51086Y-48762D01*
X50552Y-48362D02*
X50743Y-48362D01*
X50762Y-48552D01*
X50743Y-48533D01*
X50705Y-48514D01*
X50609Y-48514D01*
X50571Y-48533D01*
X50552Y-48552D01*
X50533Y-48590D01*
X50533Y-48686D01*
X50552Y-48724D01*
X50571Y-48743D01*
X50609Y-48762D01*
X50705Y-48762D01*
X50743Y-48743D01*
X50762Y-48724D01*
M02*
