G04 (created by PCBNEW-RS274X (2010-11-03 BZR 2592)-stable) date Sat 17 Mar 2012 17:18:43 COT*
G01*
G70*
G90*
%MOIN*%
G04 Gerber Fmt 3.4, Leading zero omitted, Abs format*
%FSLAX34Y34*%
G04 APERTURE LIST*
%ADD10C,0.006000*%
%ADD11R,0.063000X0.071000*%
%ADD12R,0.071000X0.063000*%
%ADD13R,0.051200X0.059000*%
%ADD14R,0.059000X0.051200*%
%ADD15R,0.090600X0.078700*%
G04 APERTURE END LIST*
G54D10*
G54D11*
X79000Y-24500D03*
X77900Y-24500D03*
X79000Y-26550D03*
X77900Y-26550D03*
X79050Y-28650D03*
X77950Y-28650D03*
X78950Y-30700D03*
X77850Y-30700D03*
X78950Y-32700D03*
X77850Y-32700D03*
X79100Y-34600D03*
X78000Y-34600D03*
G54D12*
X52550Y-46250D03*
X52550Y-45150D03*
G54D11*
X41200Y-30000D03*
X42300Y-30000D03*
X62450Y-47250D03*
X61350Y-47250D03*
G54D13*
X57775Y-47300D03*
X58525Y-47300D03*
X59475Y-47300D03*
X60225Y-47300D03*
G54D11*
X57700Y-28200D03*
X58800Y-28200D03*
X55700Y-26500D03*
X56800Y-26500D03*
X55700Y-28200D03*
X56800Y-28200D03*
X53700Y-26500D03*
X54800Y-26500D03*
X53700Y-28200D03*
X54800Y-28200D03*
X51700Y-26500D03*
X52800Y-26500D03*
X51700Y-28200D03*
X52800Y-28200D03*
X49700Y-26500D03*
X50800Y-26500D03*
X49700Y-28200D03*
X50800Y-28200D03*
X47700Y-26500D03*
X48800Y-26500D03*
X47700Y-28200D03*
X48800Y-28200D03*
X45700Y-26500D03*
X46800Y-26500D03*
X45700Y-28200D03*
X46800Y-28200D03*
G54D12*
X35525Y-31225D03*
X35525Y-30125D03*
X35525Y-33225D03*
X35525Y-32125D03*
X35525Y-35225D03*
X35525Y-34125D03*
X35525Y-37225D03*
X35525Y-36125D03*
X35525Y-39225D03*
X35525Y-38125D03*
X35525Y-41225D03*
X35525Y-40125D03*
X35525Y-43225D03*
X35525Y-42125D03*
G54D11*
X39250Y-52300D03*
X38150Y-52300D03*
X41250Y-52300D03*
X40150Y-52300D03*
X59700Y-53700D03*
X58600Y-53700D03*
X59700Y-52000D03*
X58600Y-52000D03*
X61700Y-53700D03*
X60600Y-53700D03*
X61700Y-52000D03*
X60600Y-52000D03*
X63700Y-53700D03*
X62600Y-53700D03*
X63700Y-52000D03*
X62600Y-52000D03*
X65700Y-53700D03*
X64600Y-53700D03*
X65700Y-52000D03*
X64600Y-52000D03*
X67700Y-53700D03*
X66600Y-53700D03*
X67700Y-52000D03*
X66600Y-52000D03*
X69700Y-53700D03*
X68600Y-53700D03*
X69700Y-52000D03*
X68600Y-52000D03*
X71700Y-53700D03*
X70600Y-53700D03*
X71700Y-52000D03*
X70600Y-52000D03*
X73700Y-53700D03*
X72600Y-53700D03*
X73700Y-52000D03*
X72600Y-52000D03*
X59700Y-26500D03*
X60800Y-26500D03*
X59700Y-28200D03*
X60800Y-28200D03*
X57700Y-26500D03*
X58800Y-26500D03*
G54D12*
X77350Y-37650D03*
X77350Y-38750D03*
X79050Y-37650D03*
X79050Y-38750D03*
X77350Y-39650D03*
X77350Y-40750D03*
X79050Y-39650D03*
X79050Y-40750D03*
X77350Y-41650D03*
X77350Y-42750D03*
X79050Y-41650D03*
X79050Y-42750D03*
X77350Y-43650D03*
X77350Y-44750D03*
X79050Y-43650D03*
X79050Y-44750D03*
X77350Y-45650D03*
X77350Y-46750D03*
X79050Y-45650D03*
X79050Y-46750D03*
X77350Y-47650D03*
X77350Y-48750D03*
X79050Y-47650D03*
X79050Y-48750D03*
X77350Y-49650D03*
X77350Y-50750D03*
X79050Y-49650D03*
X79050Y-50750D03*
X77350Y-51650D03*
X77350Y-52750D03*
X79050Y-51650D03*
X79050Y-52750D03*
X35525Y-45225D03*
X35525Y-44125D03*
G54D13*
X52075Y-27350D03*
X52825Y-27350D03*
X50075Y-27350D03*
X50825Y-27350D03*
X48075Y-27350D03*
X48825Y-27350D03*
X46075Y-27350D03*
X46825Y-27350D03*
G54D14*
X78200Y-52025D03*
X78200Y-52775D03*
X78200Y-50025D03*
X78200Y-50775D03*
X78200Y-48025D03*
X78200Y-48775D03*
X78200Y-46025D03*
X78200Y-46775D03*
X78200Y-44025D03*
X78200Y-44775D03*
X78200Y-42025D03*
X78200Y-42775D03*
X78200Y-40025D03*
X78200Y-40775D03*
X78200Y-38025D03*
X78200Y-38775D03*
G54D13*
X54075Y-27350D03*
X54825Y-27350D03*
X56075Y-27350D03*
X56825Y-27350D03*
X58075Y-27350D03*
X58825Y-27350D03*
X60075Y-27350D03*
X60825Y-27350D03*
X73325Y-52850D03*
X72575Y-52850D03*
X71325Y-52850D03*
X70575Y-52850D03*
X69325Y-52850D03*
X68575Y-52850D03*
X67325Y-52850D03*
X66575Y-52850D03*
X65325Y-52850D03*
X64575Y-52850D03*
X63325Y-52850D03*
X62575Y-52850D03*
X61325Y-52850D03*
X60575Y-52850D03*
X59375Y-52850D03*
X58625Y-52850D03*
G54D12*
X60300Y-32550D03*
X60300Y-31450D03*
X61300Y-32550D03*
X61300Y-31450D03*
X65300Y-32550D03*
X65300Y-31450D03*
X66300Y-32550D03*
X66300Y-31450D03*
G54D11*
X69200Y-28450D03*
X68100Y-28450D03*
X69500Y-26750D03*
X68400Y-26750D03*
X71375Y-28450D03*
X70275Y-28450D03*
X71600Y-26750D03*
X70500Y-26750D03*
G54D13*
X68375Y-27600D03*
X69125Y-27600D03*
X70475Y-27600D03*
X71225Y-27600D03*
G54D11*
X68650Y-38425D03*
X69750Y-38425D03*
X68650Y-39425D03*
X69750Y-39425D03*
X68650Y-40475D03*
X69750Y-40475D03*
X68650Y-41475D03*
X69750Y-41475D03*
G54D15*
X37350Y-28716D03*
X37350Y-27134D03*
M02*
