G04 (created by PCBNEW-RS274X (2010-11-03 BZR 2592)-stable) date Sat 17 Mar 2012 17:18:43 COT*
G01*
G70*
G90*
%MOIN*%
G04 Gerber Fmt 3.4, Leading zero omitted, Abs format*
%FSLAX34Y34*%
G04 APERTURE LIST*
%ADD10C,0.006000*%
%ADD11C,0.007900*%
%ADD12C,0.006900*%
%ADD13C,0.011800*%
%ADD14C,0.023600*%
%ADD15C,0.005900*%
G04 APERTURE END LIST*
G54D10*
G54D11*
X37273Y-23987D02*
X37588Y-24026D01*
X37588Y-24146D01*
X37573Y-24174D01*
X37558Y-24187D01*
X37528Y-24199D01*
X37483Y-24193D01*
X37453Y-24174D01*
X37438Y-24157D01*
X37423Y-24126D01*
X37423Y-24006D01*
X37273Y-24347D02*
X37288Y-24319D01*
X37303Y-24306D01*
X37333Y-24294D01*
X37423Y-24306D01*
X37453Y-24324D01*
X37468Y-24341D01*
X37483Y-24373D01*
X37483Y-24418D01*
X37468Y-24446D01*
X37453Y-24459D01*
X37423Y-24471D01*
X37333Y-24459D01*
X37303Y-24441D01*
X37288Y-24424D01*
X37273Y-24392D01*
X37273Y-24347D01*
X37483Y-24583D02*
X37273Y-24617D01*
X37423Y-24696D01*
X37273Y-24737D01*
X37483Y-24823D01*
X37288Y-25039D02*
X37273Y-25007D01*
X37273Y-24947D01*
X37288Y-24919D01*
X37318Y-24907D01*
X37438Y-24922D01*
X37468Y-24941D01*
X37483Y-24973D01*
X37483Y-25033D01*
X37468Y-25061D01*
X37438Y-25072D01*
X37408Y-25069D01*
X37378Y-24915D01*
X37273Y-25187D02*
X37483Y-25213D01*
X37423Y-25206D02*
X37453Y-25224D01*
X37468Y-25241D01*
X37483Y-25273D01*
X37483Y-25303D01*
G54D12*
X35763Y-54877D02*
X35748Y-54921D01*
X35733Y-54934D01*
X35703Y-54945D01*
X35658Y-54939D01*
X35628Y-54921D01*
X35613Y-54904D01*
X35598Y-54872D01*
X35598Y-54752D01*
X35913Y-54791D01*
X35913Y-54896D01*
X35898Y-54924D01*
X35883Y-54937D01*
X35853Y-54949D01*
X35823Y-54945D01*
X35793Y-54926D01*
X35778Y-54909D01*
X35763Y-54877D01*
X35763Y-54772D01*
X35598Y-55202D02*
X35763Y-55222D01*
X35793Y-55211D01*
X35808Y-55183D01*
X35808Y-55123D01*
X35793Y-55091D01*
X35613Y-55204D02*
X35598Y-55172D01*
X35598Y-55097D01*
X35613Y-55069D01*
X35643Y-55057D01*
X35673Y-55061D01*
X35703Y-55080D01*
X35718Y-55112D01*
X35718Y-55187D01*
X35733Y-55219D01*
X35808Y-55333D02*
X35808Y-55453D01*
X35913Y-55391D02*
X35643Y-55357D01*
X35613Y-55369D01*
X35598Y-55397D01*
X35598Y-55427D01*
X35808Y-55513D02*
X35808Y-55633D01*
X35913Y-55571D02*
X35643Y-55537D01*
X35613Y-55549D01*
X35598Y-55577D01*
X35598Y-55607D01*
X35613Y-55834D02*
X35598Y-55802D01*
X35598Y-55742D01*
X35613Y-55714D01*
X35643Y-55702D01*
X35763Y-55717D01*
X35793Y-55736D01*
X35808Y-55768D01*
X35808Y-55828D01*
X35793Y-55856D01*
X35763Y-55867D01*
X35733Y-55864D01*
X35703Y-55710D01*
X35598Y-55982D02*
X35808Y-56008D01*
X35748Y-56001D02*
X35778Y-56019D01*
X35793Y-56036D01*
X35808Y-56068D01*
X35808Y-56098D01*
X35808Y-56173D02*
X35598Y-56222D01*
X35808Y-56323D02*
X35598Y-56222D01*
X35523Y-56182D01*
X35508Y-56165D01*
X35493Y-56134D01*
X35208Y-53935D02*
X35208Y-54175D01*
X35088Y-54040D02*
X35328Y-54070D01*
X35403Y-54304D02*
X35088Y-54370D01*
X35403Y-54514D01*
X35088Y-54580D02*
X35403Y-54619D01*
X35283Y-54604D02*
X35298Y-54636D01*
X35298Y-54696D01*
X35283Y-54724D01*
X35268Y-54737D01*
X35238Y-54749D01*
X35148Y-54737D01*
X35118Y-54719D01*
X35103Y-54702D01*
X35088Y-54670D01*
X35088Y-54610D01*
X35103Y-54582D01*
X35088Y-55000D02*
X35253Y-55020D01*
X35283Y-55009D01*
X35298Y-54981D01*
X35298Y-54921D01*
X35283Y-54889D01*
X35103Y-55002D02*
X35088Y-54970D01*
X35088Y-54895D01*
X35103Y-54867D01*
X35133Y-54855D01*
X35163Y-54859D01*
X35193Y-54878D01*
X35208Y-54910D01*
X35208Y-54985D01*
X35223Y-55017D01*
X35298Y-55131D02*
X35298Y-55251D01*
X35403Y-55189D02*
X35133Y-55155D01*
X35103Y-55167D01*
X35088Y-55195D01*
X35088Y-55225D01*
X35388Y-56492D02*
X35403Y-56464D01*
X35403Y-56419D01*
X35388Y-56372D01*
X35358Y-56339D01*
X35328Y-56320D01*
X35268Y-56297D01*
X35223Y-56292D01*
X35163Y-56299D01*
X35133Y-56310D01*
X35103Y-56337D01*
X35088Y-56380D01*
X35088Y-56410D01*
X35103Y-56457D01*
X35118Y-56474D01*
X35223Y-56487D01*
X35223Y-56427D01*
X35088Y-56605D02*
X35403Y-56644D01*
X35088Y-56785D01*
X35403Y-56824D01*
X35088Y-56935D02*
X35403Y-56974D01*
X35403Y-57049D01*
X35388Y-57092D01*
X35358Y-57119D01*
X35328Y-57130D01*
X35268Y-57137D01*
X35223Y-57132D01*
X35163Y-57109D01*
X35133Y-57090D01*
X35103Y-57057D01*
X35088Y-57010D01*
X35088Y-56935D01*
G54D13*
X51893Y-37918D02*
X51992Y-37131D01*
X52119Y-37693D01*
X52386Y-37131D01*
X52287Y-37918D01*
X52798Y-37881D02*
X52737Y-37918D01*
X52624Y-37918D01*
X52573Y-37881D01*
X52554Y-37806D01*
X52592Y-37506D01*
X52629Y-37431D01*
X52690Y-37393D01*
X52803Y-37393D01*
X52854Y-37431D01*
X52873Y-37506D01*
X52864Y-37581D01*
X52573Y-37656D01*
X53394Y-37393D02*
X53314Y-38030D01*
X53277Y-38105D01*
X53244Y-38143D01*
X53183Y-38180D01*
X53099Y-38180D01*
X53047Y-38143D01*
X53333Y-37881D02*
X53272Y-37918D01*
X53159Y-37918D01*
X53108Y-37881D01*
X53085Y-37843D01*
X53066Y-37768D01*
X53094Y-37543D01*
X53132Y-37468D01*
X53164Y-37431D01*
X53225Y-37393D01*
X53338Y-37393D01*
X53389Y-37431D01*
X53863Y-37918D02*
X53915Y-37506D01*
X53896Y-37431D01*
X53845Y-37393D01*
X53732Y-37393D01*
X53671Y-37431D01*
X53868Y-37881D02*
X53807Y-37918D01*
X53666Y-37918D01*
X53615Y-37881D01*
X53596Y-37806D01*
X53606Y-37731D01*
X53643Y-37656D01*
X53704Y-37618D01*
X53845Y-37618D01*
X53906Y-37581D01*
X54572Y-37881D02*
X54651Y-37918D01*
X54792Y-37918D01*
X54853Y-37881D01*
X54886Y-37843D01*
X54923Y-37768D01*
X54933Y-37693D01*
X54914Y-37618D01*
X54891Y-37581D01*
X54839Y-37543D01*
X54731Y-37506D01*
X54680Y-37468D01*
X54656Y-37431D01*
X54638Y-37356D01*
X54647Y-37281D01*
X54684Y-37206D01*
X54717Y-37169D01*
X54778Y-37131D01*
X54919Y-37131D01*
X54998Y-37169D01*
X55158Y-37918D02*
X55257Y-37131D01*
X55411Y-37918D02*
X55463Y-37506D01*
X55444Y-37431D01*
X55393Y-37393D01*
X55308Y-37393D01*
X55247Y-37431D01*
X55215Y-37468D01*
X55693Y-37918D02*
X55759Y-37393D01*
X55792Y-37131D02*
X55759Y-37169D01*
X55782Y-37206D01*
X55815Y-37169D01*
X55792Y-37131D01*
X55782Y-37206D01*
X56204Y-37881D02*
X56143Y-37918D01*
X56030Y-37918D01*
X55979Y-37881D01*
X55960Y-37806D01*
X55998Y-37506D01*
X56035Y-37431D01*
X56096Y-37393D01*
X56209Y-37393D01*
X56260Y-37431D01*
X56279Y-37506D01*
X56270Y-37581D01*
X55979Y-37656D01*
X56565Y-37918D02*
X56514Y-37881D01*
X56495Y-37806D01*
X56580Y-37131D01*
X57044Y-37918D02*
X57143Y-37131D01*
X57049Y-37881D02*
X56988Y-37918D01*
X56875Y-37918D01*
X56824Y-37881D01*
X56801Y-37843D01*
X56782Y-37768D01*
X56810Y-37543D01*
X56848Y-37468D01*
X56880Y-37431D01*
X56941Y-37393D01*
X57054Y-37393D01*
X57105Y-37431D01*
X57785Y-37393D02*
X57860Y-37918D01*
X58067Y-37393D01*
X58437Y-37131D02*
X58494Y-37131D01*
X58545Y-37169D01*
X58568Y-37206D01*
X58587Y-37281D01*
X58596Y-37431D01*
X58573Y-37618D01*
X58526Y-37768D01*
X58489Y-37843D01*
X58456Y-37881D01*
X58395Y-37918D01*
X58338Y-37918D01*
X58287Y-37881D01*
X58264Y-37843D01*
X58245Y-37768D01*
X58236Y-37618D01*
X58259Y-37431D01*
X58306Y-37281D01*
X58343Y-37206D01*
X58376Y-37169D01*
X58437Y-37131D01*
X58799Y-37843D02*
X58822Y-37881D01*
X58789Y-37918D01*
X58766Y-37881D01*
X58799Y-37843D01*
X58789Y-37918D01*
X59379Y-37918D02*
X59042Y-37918D01*
X59210Y-37918D02*
X59309Y-37131D01*
X59239Y-37243D01*
X59173Y-37318D01*
X59113Y-37356D01*
G54D14*
X43344Y-34877D02*
X43682Y-34877D01*
X43839Y-34971D01*
X43983Y-35159D01*
X44022Y-35534D01*
X43940Y-36190D01*
X43808Y-36565D01*
X43616Y-36753D01*
X43436Y-36846D01*
X43098Y-36846D01*
X42941Y-36753D01*
X42796Y-36565D01*
X42759Y-36190D01*
X42841Y-35534D01*
X42971Y-35159D01*
X43164Y-34971D01*
X43344Y-34877D01*
X44781Y-35534D02*
X44534Y-37503D01*
X44769Y-35628D02*
X44950Y-35534D01*
X45287Y-35534D01*
X45444Y-35628D01*
X45516Y-35721D01*
X45578Y-35909D01*
X45507Y-36471D01*
X45399Y-36659D01*
X45303Y-36753D01*
X45123Y-36846D01*
X44786Y-36846D01*
X44628Y-36753D01*
X46906Y-36753D02*
X46726Y-36846D01*
X46389Y-36846D01*
X46231Y-36753D01*
X46171Y-36565D01*
X46264Y-35815D01*
X46372Y-35628D01*
X46553Y-35534D01*
X46890Y-35534D01*
X47047Y-35628D01*
X47107Y-35815D01*
X47084Y-36003D01*
X46218Y-36190D01*
X47903Y-35534D02*
X47739Y-36846D01*
X47879Y-35721D02*
X47975Y-35628D01*
X48156Y-35534D01*
X48409Y-35534D01*
X48566Y-35628D01*
X48626Y-35815D01*
X48498Y-36846D01*
X49342Y-36846D02*
X49588Y-34877D01*
X50010Y-34877D01*
X50251Y-34971D01*
X50396Y-35159D01*
X50457Y-35346D01*
X50494Y-35721D01*
X50459Y-36003D01*
X50328Y-36378D01*
X50221Y-36565D01*
X50028Y-36753D01*
X49764Y-36846D01*
X49342Y-36846D01*
X51367Y-36846D02*
X51209Y-36753D01*
X51137Y-36659D01*
X51076Y-36471D01*
X51147Y-35909D01*
X51254Y-35721D01*
X51350Y-35628D01*
X51531Y-35534D01*
X51784Y-35534D01*
X51941Y-35628D01*
X52013Y-35721D01*
X52075Y-35909D01*
X52004Y-36471D01*
X51896Y-36659D01*
X51800Y-36753D01*
X51620Y-36846D01*
X51367Y-36846D01*
X52717Y-36846D02*
X52881Y-35534D01*
X52857Y-35721D02*
X52953Y-35628D01*
X53134Y-35534D01*
X53387Y-35534D01*
X53544Y-35628D01*
X53604Y-35815D01*
X53476Y-36846D01*
X53604Y-35815D02*
X53713Y-35628D01*
X53893Y-35534D01*
X54147Y-35534D01*
X54303Y-35628D01*
X54364Y-35815D01*
X54236Y-36846D01*
X55333Y-36846D02*
X55175Y-36753D01*
X55103Y-36659D01*
X55042Y-36471D01*
X55113Y-35909D01*
X55220Y-35721D01*
X55316Y-35628D01*
X55497Y-35534D01*
X55750Y-35534D01*
X55907Y-35628D01*
X55979Y-35721D01*
X56041Y-35909D01*
X55970Y-36471D01*
X55862Y-36659D01*
X55766Y-36753D01*
X55586Y-36846D01*
X55333Y-36846D01*
X56594Y-35534D02*
X57269Y-35534D01*
X56929Y-34877D02*
X56718Y-36565D01*
X56778Y-36753D01*
X56936Y-36846D01*
X57105Y-36846D01*
X57696Y-36846D02*
X57860Y-35534D01*
X57942Y-34877D02*
X57846Y-34971D01*
X57918Y-35065D01*
X58014Y-34971D01*
X57942Y-34877D01*
X57918Y-35065D01*
X59310Y-36753D02*
X59131Y-36846D01*
X58793Y-36846D01*
X58635Y-36753D01*
X58563Y-36659D01*
X58502Y-36471D01*
X58573Y-35909D01*
X58680Y-35721D01*
X58776Y-35628D01*
X58957Y-35534D01*
X59295Y-35534D01*
X59451Y-35628D01*
G54D15*
X71481Y-25979D02*
X71452Y-26215D01*
X71394Y-26047D01*
X71294Y-26215D01*
X71323Y-25979D01*
X71177Y-25979D02*
X71199Y-25991D01*
X71208Y-26002D01*
X71217Y-26024D01*
X71208Y-26092D01*
X71194Y-26114D01*
X71182Y-26126D01*
X71157Y-26137D01*
X71123Y-26137D01*
X71103Y-26126D01*
X71093Y-26114D01*
X71084Y-26092D01*
X71093Y-26024D01*
X71107Y-26002D01*
X71120Y-25991D01*
X71143Y-25979D01*
X71177Y-25979D01*
X70896Y-25979D02*
X70867Y-26215D01*
X70895Y-25991D02*
X70918Y-25979D01*
X70963Y-25979D01*
X70985Y-25991D01*
X70994Y-26002D01*
X71003Y-26024D01*
X70994Y-26092D01*
X70980Y-26114D01*
X70968Y-26126D01*
X70943Y-26137D01*
X70898Y-26137D01*
X70878Y-26126D01*
X70692Y-25991D02*
X70715Y-25979D01*
X70760Y-25979D01*
X70782Y-25991D01*
X70790Y-26013D01*
X70779Y-26103D01*
X70765Y-26126D01*
X70740Y-26137D01*
X70695Y-26137D01*
X70675Y-26126D01*
X70667Y-26103D01*
X70669Y-26081D01*
X70784Y-26058D01*
X70457Y-25979D02*
X70592Y-25979D01*
X70525Y-25979D02*
X70496Y-26215D01*
X70522Y-26182D01*
X70548Y-26159D01*
X70571Y-26148D01*
X69456Y-25979D02*
X69427Y-26215D01*
X69369Y-26047D01*
X69269Y-26215D01*
X69298Y-25979D01*
X69152Y-25979D02*
X69174Y-25991D01*
X69183Y-26002D01*
X69192Y-26024D01*
X69183Y-26092D01*
X69169Y-26114D01*
X69157Y-26126D01*
X69132Y-26137D01*
X69098Y-26137D01*
X69078Y-26126D01*
X69068Y-26114D01*
X69059Y-26092D01*
X69068Y-26024D01*
X69082Y-26002D01*
X69095Y-25991D01*
X69118Y-25979D01*
X69152Y-25979D01*
X68871Y-25979D02*
X68842Y-26215D01*
X68870Y-25991D02*
X68893Y-25979D01*
X68938Y-25979D01*
X68960Y-25991D01*
X68969Y-26002D01*
X68978Y-26024D01*
X68969Y-26092D01*
X68955Y-26114D01*
X68943Y-26126D01*
X68918Y-26137D01*
X68873Y-26137D01*
X68853Y-26126D01*
X68667Y-25991D02*
X68690Y-25979D01*
X68735Y-25979D01*
X68757Y-25991D01*
X68765Y-26013D01*
X68754Y-26103D01*
X68740Y-26126D01*
X68715Y-26137D01*
X68670Y-26137D01*
X68650Y-26126D01*
X68642Y-26103D01*
X68644Y-26081D01*
X68759Y-26058D01*
X68540Y-26193D02*
X68528Y-26204D01*
X68504Y-26215D01*
X68448Y-26215D01*
X68427Y-26204D01*
X68416Y-26193D01*
X68408Y-26171D01*
X68411Y-26148D01*
X68426Y-26114D01*
X68578Y-25979D01*
X68432Y-25979D01*
X48991Y-47446D02*
X48926Y-47333D01*
X48856Y-47446D02*
X48885Y-47210D01*
X48975Y-47210D01*
X48997Y-47221D01*
X49007Y-47232D01*
X49015Y-47254D01*
X49011Y-47288D01*
X48997Y-47311D01*
X48984Y-47322D01*
X48960Y-47333D01*
X48870Y-47333D01*
X49082Y-47434D02*
X49115Y-47446D01*
X49171Y-47446D01*
X49194Y-47434D01*
X49208Y-47423D01*
X49221Y-47401D01*
X49224Y-47378D01*
X49216Y-47356D01*
X49206Y-47344D01*
X49185Y-47333D01*
X49141Y-47322D01*
X49120Y-47311D01*
X49110Y-47299D01*
X49102Y-47277D01*
X49105Y-47254D01*
X49119Y-47232D01*
X49131Y-47221D01*
X49155Y-47210D01*
X49211Y-47210D01*
X49244Y-47221D01*
X49312Y-47210D02*
X49447Y-47210D01*
X49351Y-47446D02*
X49380Y-47210D01*
X49688Y-47356D02*
X49868Y-47356D01*
X49767Y-47446D02*
X49789Y-47266D01*
X49976Y-47210D02*
X50122Y-47210D01*
X50032Y-47299D01*
X50066Y-47299D01*
X50087Y-47311D01*
X50097Y-47322D01*
X50106Y-47344D01*
X50098Y-47401D01*
X50085Y-47423D01*
X50071Y-47434D01*
X50048Y-47446D01*
X49980Y-47446D01*
X49959Y-47434D01*
X49950Y-47423D01*
X50197Y-47423D02*
X50206Y-47434D01*
X50194Y-47446D01*
X50184Y-47434D01*
X50197Y-47423D01*
X50194Y-47446D01*
X50313Y-47210D02*
X50459Y-47210D01*
X50369Y-47299D01*
X50403Y-47299D01*
X50424Y-47311D01*
X50434Y-47322D01*
X50443Y-47344D01*
X50435Y-47401D01*
X50422Y-47423D01*
X50408Y-47434D01*
X50385Y-47446D01*
X50317Y-47446D01*
X50296Y-47434D01*
X50287Y-47423D01*
X50526Y-47210D02*
X50576Y-47446D01*
X50684Y-47210D01*
X76078Y-32567D02*
X76078Y-32646D01*
X75954Y-32665D02*
X75954Y-32552D01*
X76190Y-32581D01*
X76190Y-32694D01*
X75954Y-32744D02*
X76112Y-32887D01*
X76112Y-32764D02*
X75954Y-32867D01*
X76112Y-32977D02*
X75876Y-32947D01*
X76101Y-32975D02*
X76112Y-33000D01*
X76112Y-33045D01*
X76101Y-33065D01*
X76089Y-33075D01*
X76067Y-33084D01*
X75999Y-33075D01*
X75977Y-33061D01*
X75966Y-33048D01*
X75954Y-33025D01*
X75954Y-32980D01*
X75966Y-32958D01*
X75954Y-33272D02*
X76078Y-33287D01*
X76101Y-33279D01*
X76112Y-33259D01*
X76112Y-33214D01*
X76101Y-33189D01*
X75966Y-33273D02*
X75954Y-33250D01*
X75954Y-33194D01*
X75966Y-33172D01*
X75988Y-33164D01*
X76011Y-33167D01*
X76033Y-33181D01*
X76044Y-33205D01*
X76044Y-33261D01*
X76056Y-33285D01*
X76112Y-33405D02*
X75954Y-33385D01*
X76089Y-33402D02*
X76101Y-33414D01*
X76112Y-33439D01*
X76112Y-33473D01*
X76101Y-33493D01*
X76078Y-33501D01*
X75954Y-33486D01*
X75966Y-33589D02*
X75954Y-33610D01*
X75954Y-33655D01*
X75966Y-33679D01*
X75988Y-33693D01*
X75999Y-33694D01*
X76022Y-33686D01*
X76033Y-33665D01*
X76033Y-33632D01*
X76044Y-33610D01*
X76067Y-33602D01*
X76078Y-33603D01*
X76101Y-33617D01*
X76112Y-33642D01*
X76112Y-33675D01*
X76101Y-33696D01*
X75954Y-33790D02*
X76112Y-33810D01*
X76190Y-33819D02*
X76179Y-33807D01*
X76168Y-33817D01*
X76179Y-33829D01*
X76190Y-33819D01*
X76168Y-33817D01*
X75954Y-33936D02*
X75966Y-33914D01*
X75977Y-33905D01*
X75999Y-33896D01*
X76067Y-33905D01*
X76089Y-33919D01*
X76101Y-33931D01*
X76112Y-33956D01*
X76112Y-33990D01*
X76101Y-34010D01*
X76089Y-34020D01*
X76067Y-34029D01*
X75999Y-34020D01*
X75977Y-34006D01*
X75966Y-33993D01*
X75954Y-33970D01*
X75954Y-33936D01*
X76112Y-34136D02*
X75954Y-34116D01*
X76089Y-34133D02*
X76101Y-34145D01*
X76112Y-34170D01*
X76112Y-34204D01*
X76101Y-34224D01*
X76078Y-34232D01*
X75954Y-34217D01*
X75954Y-34510D02*
X76190Y-34539D01*
X76190Y-34595D01*
X76179Y-34628D01*
X76157Y-34648D01*
X76134Y-34656D01*
X76089Y-34662D01*
X76056Y-34658D01*
X76011Y-34641D01*
X75988Y-34627D01*
X75966Y-34601D01*
X75954Y-34566D01*
X75954Y-34510D01*
X75954Y-34746D02*
X76112Y-34766D01*
X76190Y-34775D02*
X76179Y-34763D01*
X76168Y-34773D01*
X76179Y-34785D01*
X76190Y-34775D01*
X76168Y-34773D01*
X76112Y-34979D02*
X75921Y-34955D01*
X75898Y-34941D01*
X75887Y-34928D01*
X75876Y-34904D01*
X75876Y-34871D01*
X75887Y-34849D01*
X75966Y-34960D02*
X75954Y-34937D01*
X75954Y-34892D01*
X75966Y-34870D01*
X75977Y-34861D01*
X75999Y-34852D01*
X76067Y-34861D01*
X76089Y-34875D01*
X76101Y-34887D01*
X76112Y-34912D01*
X76112Y-34957D01*
X76101Y-34977D01*
X75954Y-35072D02*
X76112Y-35092D01*
X76190Y-35101D02*
X76179Y-35089D01*
X76168Y-35099D01*
X76179Y-35111D01*
X76190Y-35101D01*
X76168Y-35099D01*
X76112Y-35170D02*
X76112Y-35260D01*
X76190Y-35213D02*
X75988Y-35188D01*
X75966Y-35196D01*
X75954Y-35218D01*
X75954Y-35240D01*
X75954Y-35420D02*
X76078Y-35435D01*
X76101Y-35427D01*
X76112Y-35407D01*
X76112Y-35362D01*
X76101Y-35337D01*
X75966Y-35421D02*
X75954Y-35398D01*
X75954Y-35342D01*
X75966Y-35320D01*
X75988Y-35312D01*
X76011Y-35315D01*
X76033Y-35329D01*
X76044Y-35353D01*
X76044Y-35409D01*
X76056Y-35433D01*
X75954Y-35567D02*
X75966Y-35545D01*
X75988Y-35537D01*
X76190Y-35562D01*
X75966Y-35827D02*
X75954Y-35860D01*
X75954Y-35916D01*
X75966Y-35939D01*
X75977Y-35953D01*
X75999Y-35966D01*
X76022Y-35969D01*
X76044Y-35961D01*
X76056Y-35951D01*
X76067Y-35930D01*
X76078Y-35886D01*
X76089Y-35865D01*
X76101Y-35855D01*
X76123Y-35847D01*
X76146Y-35850D01*
X76168Y-35864D01*
X76179Y-35876D01*
X76190Y-35900D01*
X76190Y-35956D01*
X76179Y-35989D01*
X75954Y-36062D02*
X76112Y-36082D01*
X76190Y-36091D02*
X76179Y-36079D01*
X76168Y-36089D01*
X76179Y-36101D01*
X76190Y-36091D01*
X76168Y-36089D01*
X76112Y-36295D02*
X75921Y-36271D01*
X75898Y-36257D01*
X75887Y-36244D01*
X75876Y-36220D01*
X75876Y-36187D01*
X75887Y-36165D01*
X75966Y-36276D02*
X75954Y-36253D01*
X75954Y-36208D01*
X75966Y-36186D01*
X75977Y-36177D01*
X75999Y-36168D01*
X76067Y-36177D01*
X76089Y-36191D01*
X76101Y-36203D01*
X76112Y-36228D01*
X76112Y-36273D01*
X76101Y-36293D01*
X76112Y-36408D02*
X75954Y-36388D01*
X76089Y-36405D02*
X76101Y-36417D01*
X76112Y-36442D01*
X76112Y-36476D01*
X76101Y-36496D01*
X76078Y-36504D01*
X75954Y-36489D01*
X75954Y-36703D02*
X76078Y-36718D01*
X76101Y-36710D01*
X76112Y-36690D01*
X76112Y-36645D01*
X76101Y-36620D01*
X75966Y-36704D02*
X75954Y-36681D01*
X75954Y-36625D01*
X75966Y-36603D01*
X75988Y-36595D01*
X76011Y-36598D01*
X76033Y-36612D01*
X76044Y-36636D01*
X76044Y-36692D01*
X76056Y-36716D01*
X75954Y-36850D02*
X75966Y-36828D01*
X75988Y-36820D01*
X76190Y-36845D01*
X75966Y-36930D02*
X75954Y-36951D01*
X75954Y-36996D01*
X75966Y-37020D01*
X75988Y-37034D01*
X75999Y-37035D01*
X76022Y-37027D01*
X76033Y-37006D01*
X76033Y-36973D01*
X76044Y-36951D01*
X76067Y-36943D01*
X76078Y-36944D01*
X76101Y-36958D01*
X76112Y-36983D01*
X76112Y-37016D01*
X76101Y-37037D01*
X76168Y-37327D02*
X76179Y-37339D01*
X76190Y-37363D01*
X76190Y-37419D01*
X76179Y-37440D01*
X76168Y-37451D01*
X76146Y-37459D01*
X76123Y-37456D01*
X76089Y-37441D01*
X75954Y-37289D01*
X75954Y-37435D01*
X71522Y-37583D02*
X71522Y-37504D01*
X71646Y-37485D02*
X71646Y-37598D01*
X71410Y-37569D01*
X71410Y-37456D01*
X71646Y-37406D02*
X71488Y-37263D01*
X71488Y-37386D02*
X71646Y-37283D01*
X71488Y-37173D02*
X71724Y-37203D01*
X71499Y-37175D02*
X71488Y-37150D01*
X71488Y-37105D01*
X71499Y-37085D01*
X71511Y-37075D01*
X71533Y-37066D01*
X71601Y-37075D01*
X71623Y-37089D01*
X71634Y-37102D01*
X71646Y-37125D01*
X71646Y-37170D01*
X71634Y-37192D01*
X71646Y-36878D02*
X71522Y-36863D01*
X71499Y-36871D01*
X71488Y-36891D01*
X71488Y-36936D01*
X71499Y-36961D01*
X71634Y-36877D02*
X71646Y-36900D01*
X71646Y-36956D01*
X71634Y-36978D01*
X71612Y-36986D01*
X71589Y-36983D01*
X71567Y-36969D01*
X71556Y-36945D01*
X71556Y-36889D01*
X71544Y-36865D01*
X71488Y-36745D02*
X71646Y-36765D01*
X71511Y-36748D02*
X71499Y-36736D01*
X71488Y-36711D01*
X71488Y-36677D01*
X71499Y-36657D01*
X71522Y-36649D01*
X71646Y-36664D01*
X71634Y-36561D02*
X71646Y-36540D01*
X71646Y-36495D01*
X71634Y-36471D01*
X71612Y-36457D01*
X71601Y-36456D01*
X71578Y-36464D01*
X71567Y-36485D01*
X71567Y-36518D01*
X71556Y-36540D01*
X71533Y-36548D01*
X71522Y-36547D01*
X71499Y-36533D01*
X71488Y-36508D01*
X71488Y-36475D01*
X71499Y-36454D01*
X71646Y-36360D02*
X71488Y-36340D01*
X71410Y-36331D02*
X71421Y-36343D01*
X71432Y-36333D01*
X71421Y-36321D01*
X71410Y-36331D01*
X71432Y-36333D01*
X71646Y-36214D02*
X71634Y-36236D01*
X71623Y-36245D01*
X71601Y-36254D01*
X71533Y-36245D01*
X71511Y-36231D01*
X71499Y-36219D01*
X71488Y-36194D01*
X71488Y-36160D01*
X71499Y-36140D01*
X71511Y-36130D01*
X71533Y-36121D01*
X71601Y-36130D01*
X71623Y-36144D01*
X71634Y-36157D01*
X71646Y-36180D01*
X71646Y-36214D01*
X71488Y-36014D02*
X71646Y-36034D01*
X71511Y-36017D02*
X71499Y-36005D01*
X71488Y-35980D01*
X71488Y-35946D01*
X71499Y-35926D01*
X71522Y-35918D01*
X71646Y-35933D01*
X71646Y-35640D02*
X71410Y-35611D01*
X71410Y-35555D01*
X71421Y-35522D01*
X71443Y-35502D01*
X71466Y-35494D01*
X71511Y-35488D01*
X71544Y-35492D01*
X71589Y-35509D01*
X71612Y-35523D01*
X71634Y-35549D01*
X71646Y-35584D01*
X71646Y-35640D01*
X71646Y-35404D02*
X71488Y-35384D01*
X71410Y-35375D02*
X71421Y-35387D01*
X71432Y-35377D01*
X71421Y-35365D01*
X71410Y-35375D01*
X71432Y-35377D01*
X71488Y-35171D02*
X71679Y-35195D01*
X71702Y-35209D01*
X71713Y-35222D01*
X71724Y-35246D01*
X71724Y-35279D01*
X71713Y-35301D01*
X71634Y-35190D02*
X71646Y-35213D01*
X71646Y-35258D01*
X71634Y-35280D01*
X71623Y-35289D01*
X71601Y-35298D01*
X71533Y-35289D01*
X71511Y-35275D01*
X71499Y-35263D01*
X71488Y-35238D01*
X71488Y-35193D01*
X71499Y-35173D01*
X71646Y-35078D02*
X71488Y-35058D01*
X71410Y-35049D02*
X71421Y-35061D01*
X71432Y-35051D01*
X71421Y-35039D01*
X71410Y-35049D01*
X71432Y-35051D01*
X71488Y-34980D02*
X71488Y-34890D01*
X71410Y-34937D02*
X71612Y-34962D01*
X71634Y-34954D01*
X71646Y-34932D01*
X71646Y-34910D01*
X71646Y-34730D02*
X71522Y-34715D01*
X71499Y-34723D01*
X71488Y-34743D01*
X71488Y-34788D01*
X71499Y-34813D01*
X71634Y-34729D02*
X71646Y-34752D01*
X71646Y-34808D01*
X71634Y-34830D01*
X71612Y-34838D01*
X71589Y-34835D01*
X71567Y-34821D01*
X71556Y-34797D01*
X71556Y-34741D01*
X71544Y-34717D01*
X71646Y-34583D02*
X71634Y-34605D01*
X71612Y-34613D01*
X71410Y-34588D01*
X71634Y-34323D02*
X71646Y-34290D01*
X71646Y-34234D01*
X71634Y-34211D01*
X71623Y-34197D01*
X71601Y-34184D01*
X71578Y-34181D01*
X71556Y-34189D01*
X71544Y-34199D01*
X71533Y-34220D01*
X71522Y-34264D01*
X71511Y-34285D01*
X71499Y-34295D01*
X71477Y-34303D01*
X71454Y-34300D01*
X71432Y-34286D01*
X71421Y-34274D01*
X71410Y-34250D01*
X71410Y-34194D01*
X71421Y-34161D01*
X71646Y-34088D02*
X71488Y-34068D01*
X71410Y-34059D02*
X71421Y-34071D01*
X71432Y-34061D01*
X71421Y-34049D01*
X71410Y-34059D01*
X71432Y-34061D01*
X71488Y-33855D02*
X71679Y-33879D01*
X71702Y-33893D01*
X71713Y-33906D01*
X71724Y-33930D01*
X71724Y-33963D01*
X71713Y-33985D01*
X71634Y-33874D02*
X71646Y-33897D01*
X71646Y-33942D01*
X71634Y-33964D01*
X71623Y-33973D01*
X71601Y-33982D01*
X71533Y-33973D01*
X71511Y-33959D01*
X71499Y-33947D01*
X71488Y-33922D01*
X71488Y-33877D01*
X71499Y-33857D01*
X71488Y-33742D02*
X71646Y-33762D01*
X71511Y-33745D02*
X71499Y-33733D01*
X71488Y-33708D01*
X71488Y-33674D01*
X71499Y-33654D01*
X71522Y-33646D01*
X71646Y-33661D01*
X71646Y-33447D02*
X71522Y-33432D01*
X71499Y-33440D01*
X71488Y-33460D01*
X71488Y-33505D01*
X71499Y-33530D01*
X71634Y-33446D02*
X71646Y-33469D01*
X71646Y-33525D01*
X71634Y-33547D01*
X71612Y-33555D01*
X71589Y-33552D01*
X71567Y-33538D01*
X71556Y-33514D01*
X71556Y-33458D01*
X71544Y-33434D01*
X71646Y-33300D02*
X71634Y-33322D01*
X71612Y-33330D01*
X71410Y-33305D01*
X71634Y-33220D02*
X71646Y-33199D01*
X71646Y-33154D01*
X71634Y-33130D01*
X71612Y-33116D01*
X71601Y-33115D01*
X71578Y-33123D01*
X71567Y-33144D01*
X71567Y-33177D01*
X71556Y-33199D01*
X71533Y-33207D01*
X71522Y-33206D01*
X71499Y-33192D01*
X71488Y-33167D01*
X71488Y-33134D01*
X71499Y-33113D01*
X71646Y-32715D02*
X71646Y-32850D01*
X71646Y-32783D02*
X71410Y-32754D01*
X71443Y-32780D01*
X71466Y-32806D01*
X71477Y-32829D01*
G54D12*
X64781Y-46099D02*
X64818Y-46112D01*
X64884Y-46112D01*
X64912Y-46099D01*
X64927Y-46085D01*
X64943Y-46059D01*
X64946Y-46033D01*
X64936Y-46007D01*
X64925Y-45993D01*
X64901Y-45980D01*
X64849Y-45967D01*
X64825Y-45954D01*
X64814Y-45941D01*
X64804Y-45915D01*
X64807Y-45888D01*
X64824Y-45862D01*
X64838Y-45849D01*
X64866Y-45836D01*
X64932Y-45836D01*
X64969Y-45849D01*
X65162Y-46099D02*
X65134Y-46112D01*
X65081Y-46112D01*
X65057Y-46099D01*
X65047Y-46072D01*
X65060Y-45967D01*
X65077Y-45941D01*
X65104Y-45928D01*
X65157Y-45928D01*
X65182Y-45941D01*
X65191Y-45967D01*
X65188Y-45993D01*
X65054Y-46020D01*
X65315Y-45928D02*
X65292Y-46112D01*
X65312Y-45954D02*
X65327Y-45941D01*
X65354Y-45928D01*
X65394Y-45928D01*
X65419Y-45941D01*
X65428Y-45967D01*
X65410Y-46112D01*
X65531Y-46099D02*
X65555Y-46112D01*
X65607Y-46112D01*
X65636Y-46099D01*
X65652Y-46072D01*
X65654Y-46059D01*
X65644Y-46033D01*
X65619Y-46020D01*
X65580Y-46020D01*
X65555Y-46007D01*
X65546Y-45980D01*
X65547Y-45967D01*
X65564Y-45941D01*
X65591Y-45928D01*
X65630Y-45928D01*
X65656Y-45941D01*
X65804Y-46112D02*
X65780Y-46099D01*
X65769Y-46085D01*
X65759Y-46059D01*
X65769Y-45980D01*
X65785Y-45954D01*
X65800Y-45941D01*
X65827Y-45928D01*
X65867Y-45928D01*
X65892Y-45941D01*
X65903Y-45954D01*
X65913Y-45980D01*
X65903Y-46059D01*
X65887Y-46085D01*
X65872Y-46099D01*
X65844Y-46112D01*
X65804Y-46112D01*
X66015Y-46112D02*
X66038Y-45928D01*
X66032Y-45980D02*
X66048Y-45954D01*
X66063Y-45941D01*
X66090Y-45928D01*
X66117Y-45928D01*
X66514Y-46112D02*
X66549Y-45836D01*
X66516Y-46099D02*
X66488Y-46112D01*
X66435Y-46112D01*
X66411Y-46099D01*
X66400Y-46085D01*
X66390Y-46059D01*
X66400Y-45980D01*
X66416Y-45954D01*
X66431Y-45941D01*
X66458Y-45928D01*
X66511Y-45928D01*
X66536Y-45941D01*
X66753Y-46099D02*
X66725Y-46112D01*
X66672Y-46112D01*
X66648Y-46099D01*
X66638Y-46072D01*
X66651Y-45967D01*
X66668Y-45941D01*
X66695Y-45928D01*
X66748Y-45928D01*
X66773Y-45941D01*
X66782Y-45967D01*
X66779Y-45993D01*
X66645Y-46020D01*
X67132Y-46112D02*
X67108Y-46099D01*
X67098Y-46072D01*
X67128Y-45836D01*
X67379Y-45928D02*
X67356Y-46112D01*
X67261Y-45928D02*
X67243Y-46072D01*
X67253Y-46099D01*
X67277Y-46112D01*
X67317Y-46112D01*
X67345Y-46099D01*
X67360Y-46085D01*
X67484Y-45928D02*
X67629Y-45928D01*
X67461Y-46112D01*
X67606Y-46112D01*
G54D11*
X79307Y-57090D02*
X79307Y-56850D01*
X79427Y-56985D02*
X79187Y-56955D01*
X79112Y-56526D02*
X79112Y-56676D01*
X79262Y-56710D01*
X79247Y-56693D01*
X79232Y-56661D01*
X79232Y-56586D01*
X79247Y-56558D01*
X79262Y-56545D01*
X79292Y-56533D01*
X79367Y-56543D01*
X79397Y-56561D01*
X79412Y-56578D01*
X79427Y-56610D01*
X79427Y-56685D01*
X79412Y-56713D01*
X79397Y-56726D01*
X79112Y-56421D02*
X79427Y-56355D01*
X79112Y-56211D01*
X79127Y-54983D02*
X79112Y-55011D01*
X79112Y-55056D01*
X79127Y-55103D01*
X79157Y-55136D01*
X79187Y-55155D01*
X79247Y-55178D01*
X79292Y-55183D01*
X79352Y-55176D01*
X79382Y-55165D01*
X79412Y-55138D01*
X79427Y-55095D01*
X79427Y-55065D01*
X79412Y-55018D01*
X79397Y-55001D01*
X79292Y-54988D01*
X79292Y-55048D01*
X79427Y-54870D02*
X79112Y-54831D01*
X79427Y-54690D01*
X79112Y-54651D01*
X79427Y-54540D02*
X79112Y-54501D01*
X79112Y-54426D01*
X79127Y-54383D01*
X79157Y-54356D01*
X79187Y-54345D01*
X79247Y-54338D01*
X79292Y-54343D01*
X79352Y-54366D01*
X79382Y-54385D01*
X79412Y-54418D01*
X79427Y-54465D01*
X79427Y-54540D01*
X66015Y-26293D02*
X65775Y-26293D01*
X65910Y-26173D02*
X65880Y-26413D01*
X65451Y-26488D02*
X65601Y-26488D01*
X65635Y-26338D01*
X65618Y-26353D01*
X65586Y-26368D01*
X65511Y-26368D01*
X65483Y-26353D01*
X65470Y-26338D01*
X65458Y-26308D01*
X65468Y-26233D01*
X65486Y-26203D01*
X65503Y-26188D01*
X65535Y-26173D01*
X65610Y-26173D01*
X65638Y-26188D01*
X65651Y-26203D01*
X65346Y-26488D02*
X65280Y-26173D01*
X65136Y-26488D01*
X63908Y-26473D02*
X63936Y-26488D01*
X63981Y-26488D01*
X64028Y-26473D01*
X64061Y-26443D01*
X64080Y-26413D01*
X64103Y-26353D01*
X64108Y-26308D01*
X64101Y-26248D01*
X64090Y-26218D01*
X64063Y-26188D01*
X64020Y-26173D01*
X63990Y-26173D01*
X63943Y-26188D01*
X63926Y-26203D01*
X63913Y-26308D01*
X63973Y-26308D01*
X63795Y-26173D02*
X63756Y-26488D01*
X63615Y-26173D01*
X63576Y-26488D01*
X63465Y-26173D02*
X63426Y-26488D01*
X63351Y-26488D01*
X63308Y-26473D01*
X63281Y-26443D01*
X63270Y-26413D01*
X63263Y-26353D01*
X63268Y-26308D01*
X63291Y-26248D01*
X63310Y-26218D01*
X63343Y-26188D01*
X63390Y-26173D01*
X63465Y-26173D01*
X45634Y-53262D02*
X45694Y-53262D01*
X45722Y-53277D01*
X45749Y-53307D01*
X45756Y-53367D01*
X45743Y-53472D01*
X45720Y-53532D01*
X45687Y-53562D01*
X45655Y-53577D01*
X45595Y-53577D01*
X45567Y-53562D01*
X45540Y-53532D01*
X45533Y-53472D01*
X45546Y-53367D01*
X45569Y-53307D01*
X45602Y-53277D01*
X45634Y-53262D01*
X45846Y-53367D02*
X45966Y-53367D01*
X45904Y-53262D02*
X45870Y-53532D01*
X45882Y-53562D01*
X45910Y-53577D01*
X45940Y-53577D01*
X46045Y-53577D02*
X46084Y-53262D01*
X46180Y-53577D02*
X46200Y-53412D01*
X46189Y-53382D01*
X46161Y-53367D01*
X46116Y-53367D01*
X46084Y-53382D01*
X46067Y-53397D01*
X46452Y-53562D02*
X46420Y-53577D01*
X46360Y-53577D01*
X46332Y-53562D01*
X46320Y-53532D01*
X46335Y-53412D01*
X46354Y-53382D01*
X46386Y-53367D01*
X46446Y-53367D01*
X46474Y-53382D01*
X46485Y-53412D01*
X46482Y-53442D01*
X46328Y-53472D01*
X46600Y-53577D02*
X46626Y-53367D01*
X46619Y-53427D02*
X46637Y-53397D01*
X46654Y-53382D01*
X46686Y-53367D01*
X46716Y-53367D01*
X47022Y-53562D02*
X47050Y-53577D01*
X47110Y-53577D01*
X47142Y-53562D01*
X47160Y-53532D01*
X47162Y-53517D01*
X47151Y-53487D01*
X47123Y-53472D01*
X47078Y-53472D01*
X47050Y-53457D01*
X47039Y-53427D01*
X47040Y-53412D01*
X47059Y-53382D01*
X47091Y-53367D01*
X47136Y-53367D01*
X47164Y-53382D01*
X47412Y-53562D02*
X47380Y-53577D01*
X47320Y-53577D01*
X47292Y-53562D01*
X47280Y-53532D01*
X47295Y-53412D01*
X47314Y-53382D01*
X47346Y-53367D01*
X47406Y-53367D01*
X47434Y-53382D01*
X47445Y-53412D01*
X47442Y-53442D01*
X47288Y-53472D01*
X47586Y-53367D02*
X47560Y-53577D01*
X47582Y-53397D02*
X47599Y-53382D01*
X47631Y-53367D01*
X47676Y-53367D01*
X47704Y-53382D01*
X47715Y-53412D01*
X47695Y-53577D01*
X47832Y-53562D02*
X47860Y-53577D01*
X47920Y-53577D01*
X47952Y-53562D01*
X47970Y-53532D01*
X47972Y-53517D01*
X47961Y-53487D01*
X47933Y-53472D01*
X47888Y-53472D01*
X47860Y-53457D01*
X47849Y-53427D01*
X47850Y-53412D01*
X47869Y-53382D01*
X47901Y-53367D01*
X47946Y-53367D01*
X47974Y-53382D01*
X48145Y-53577D02*
X48117Y-53562D01*
X48104Y-53547D01*
X48092Y-53517D01*
X48104Y-53427D01*
X48122Y-53397D01*
X48139Y-53382D01*
X48171Y-53367D01*
X48216Y-53367D01*
X48244Y-53382D01*
X48257Y-53397D01*
X48269Y-53427D01*
X48257Y-53517D01*
X48239Y-53547D01*
X48222Y-53562D01*
X48190Y-53577D01*
X48145Y-53577D01*
X48385Y-53577D02*
X48411Y-53367D01*
X48404Y-53427D02*
X48422Y-53397D01*
X48439Y-53382D01*
X48471Y-53367D01*
X48501Y-53367D01*
X48567Y-53562D02*
X48595Y-53577D01*
X48655Y-53577D01*
X48687Y-53562D01*
X48705Y-53532D01*
X48707Y-53517D01*
X48696Y-53487D01*
X48668Y-53472D01*
X48623Y-53472D01*
X48595Y-53457D01*
X48584Y-53427D01*
X48585Y-53412D01*
X48604Y-53382D01*
X48636Y-53367D01*
X48681Y-53367D01*
X48709Y-53382D01*
X49150Y-53697D02*
X49137Y-53682D01*
X49112Y-53637D01*
X49101Y-53607D01*
X49092Y-53562D01*
X49086Y-53487D01*
X49094Y-53427D01*
X49118Y-53352D01*
X49139Y-53307D01*
X49157Y-53277D01*
X49193Y-53232D01*
X49210Y-53217D01*
X49285Y-53577D02*
X49324Y-53262D01*
X49401Y-53487D01*
X49534Y-53262D01*
X49495Y-53577D01*
X49851Y-53607D02*
X49823Y-53592D01*
X49797Y-53562D01*
X49757Y-53517D01*
X49729Y-53502D01*
X49699Y-53502D01*
X49705Y-53577D02*
X49677Y-53562D01*
X49650Y-53532D01*
X49643Y-53472D01*
X49656Y-53367D01*
X49679Y-53307D01*
X49712Y-53277D01*
X49744Y-53262D01*
X49804Y-53262D01*
X49832Y-53277D01*
X49859Y-53307D01*
X49866Y-53367D01*
X49853Y-53472D01*
X49830Y-53532D01*
X49797Y-53562D01*
X49765Y-53577D01*
X49705Y-53577D01*
X49930Y-53697D02*
X49947Y-53682D01*
X49982Y-53637D01*
X50001Y-53607D01*
X50022Y-53562D01*
X50046Y-53487D01*
X50054Y-53427D01*
X50048Y-53352D01*
X50039Y-53307D01*
X50027Y-53277D01*
X50003Y-53232D01*
X49990Y-53217D01*
X44487Y-54082D02*
X44530Y-54097D01*
X44605Y-54097D01*
X44637Y-54082D01*
X44654Y-54067D01*
X44672Y-54037D01*
X44676Y-54007D01*
X44665Y-53977D01*
X44652Y-53962D01*
X44624Y-53947D01*
X44565Y-53932D01*
X44537Y-53917D01*
X44524Y-53902D01*
X44513Y-53872D01*
X44517Y-53842D01*
X44535Y-53812D01*
X44552Y-53797D01*
X44584Y-53782D01*
X44659Y-53782D01*
X44702Y-53797D01*
X44965Y-54097D02*
X44785Y-54097D01*
X44875Y-54097D02*
X44914Y-53782D01*
X44879Y-53827D01*
X44845Y-53857D01*
X44813Y-53872D01*
X46287Y-54082D02*
X46330Y-54097D01*
X46405Y-54097D01*
X46437Y-54082D01*
X46454Y-54067D01*
X46472Y-54037D01*
X46476Y-54007D01*
X46465Y-53977D01*
X46452Y-53962D01*
X46424Y-53947D01*
X46365Y-53932D01*
X46337Y-53917D01*
X46324Y-53902D01*
X46313Y-53872D01*
X46317Y-53842D01*
X46335Y-53812D01*
X46352Y-53797D01*
X46384Y-53782D01*
X46459Y-53782D01*
X46502Y-53797D01*
X46620Y-53812D02*
X46637Y-53797D01*
X46669Y-53782D01*
X46744Y-53782D01*
X46772Y-53797D01*
X46785Y-53812D01*
X46797Y-53842D01*
X46793Y-53872D01*
X46772Y-53917D01*
X46570Y-54097D01*
X46765Y-54097D01*
X48115Y-53977D02*
X48355Y-53977D01*
X48220Y-54097D02*
X48250Y-53857D01*
X48679Y-53782D02*
X48529Y-53782D01*
X48495Y-53932D01*
X48512Y-53917D01*
X48544Y-53902D01*
X48619Y-53902D01*
X48647Y-53917D01*
X48660Y-53932D01*
X48672Y-53962D01*
X48662Y-54037D01*
X48644Y-54067D01*
X48627Y-54082D01*
X48595Y-54097D01*
X48520Y-54097D01*
X48492Y-54082D01*
X48479Y-54067D01*
X48784Y-53782D02*
X48850Y-54097D01*
X48994Y-53782D01*
X50462Y-53797D02*
X50434Y-53782D01*
X50389Y-53782D01*
X50342Y-53797D01*
X50309Y-53827D01*
X50290Y-53857D01*
X50267Y-53917D01*
X50262Y-53962D01*
X50269Y-54022D01*
X50280Y-54052D01*
X50307Y-54082D01*
X50350Y-54097D01*
X50380Y-54097D01*
X50427Y-54082D01*
X50444Y-54067D01*
X50457Y-53962D01*
X50397Y-53962D01*
X50575Y-54097D02*
X50614Y-53782D01*
X50755Y-54097D01*
X50794Y-53782D01*
X50905Y-54097D02*
X50944Y-53782D01*
X51019Y-53782D01*
X51062Y-53797D01*
X51089Y-53827D01*
X51100Y-53857D01*
X51107Y-53917D01*
X51102Y-53962D01*
X51079Y-54022D01*
X51060Y-54052D01*
X51027Y-54082D01*
X50980Y-54097D01*
X50905Y-54097D01*
X53455Y-53907D02*
X53695Y-53907D01*
X53560Y-54027D02*
X53590Y-53787D01*
X53995Y-54027D02*
X53815Y-54027D01*
X53905Y-54027D02*
X53944Y-53712D01*
X53909Y-53757D01*
X53875Y-53787D01*
X53843Y-53802D01*
X54150Y-53742D02*
X54167Y-53727D01*
X54199Y-53712D01*
X54274Y-53712D01*
X54302Y-53727D01*
X54315Y-53742D01*
X54327Y-53772D01*
X54323Y-53802D01*
X54302Y-53847D01*
X54100Y-54027D01*
X54295Y-54027D01*
X54424Y-53712D02*
X54490Y-54027D01*
X54634Y-53712D01*
X55622Y-53727D02*
X55594Y-53712D01*
X55549Y-53712D01*
X55502Y-53727D01*
X55469Y-53757D01*
X55450Y-53787D01*
X55427Y-53847D01*
X55422Y-53892D01*
X55429Y-53952D01*
X55440Y-53982D01*
X55467Y-54012D01*
X55510Y-54027D01*
X55540Y-54027D01*
X55587Y-54012D01*
X55604Y-53997D01*
X55617Y-53892D01*
X55557Y-53892D01*
X55735Y-54027D02*
X55774Y-53712D01*
X55915Y-54027D01*
X55954Y-53712D01*
X56065Y-54027D02*
X56104Y-53712D01*
X56179Y-53712D01*
X56222Y-53727D01*
X56249Y-53757D01*
X56260Y-53787D01*
X56267Y-53847D01*
X56262Y-53892D01*
X56239Y-53952D01*
X56220Y-53982D01*
X56187Y-54012D01*
X56140Y-54027D01*
X56065Y-54027D01*
G54D12*
X60768Y-34936D02*
X60926Y-34936D01*
X60812Y-35212D02*
X60847Y-34936D01*
X60991Y-34936D02*
X61140Y-35212D01*
X61175Y-34936D02*
X60956Y-35212D01*
X61333Y-34936D02*
X61360Y-34936D01*
X61384Y-34949D01*
X61396Y-34962D01*
X61405Y-34988D01*
X61412Y-35041D01*
X61403Y-35107D01*
X61384Y-35159D01*
X61368Y-35185D01*
X61353Y-35199D01*
X61325Y-35212D01*
X61298Y-35212D01*
X61274Y-35199D01*
X61263Y-35185D01*
X61253Y-35159D01*
X61246Y-35107D01*
X61255Y-35041D01*
X61274Y-34988D01*
X61291Y-34962D01*
X61305Y-34949D01*
X61333Y-34936D01*
X61876Y-35212D02*
X61801Y-35080D01*
X61719Y-35212D02*
X61754Y-34936D01*
X61859Y-34936D01*
X61883Y-34949D01*
X61895Y-34962D01*
X61904Y-34988D01*
X61899Y-35028D01*
X61883Y-35054D01*
X61868Y-35067D01*
X61841Y-35080D01*
X61736Y-35080D01*
X62003Y-34936D02*
X62152Y-35212D01*
X62187Y-34936D02*
X61968Y-35212D01*
X62345Y-34936D02*
X62372Y-34936D01*
X62396Y-34949D01*
X62408Y-34962D01*
X62417Y-34988D01*
X62424Y-35041D01*
X62415Y-35107D01*
X62396Y-35159D01*
X62380Y-35185D01*
X62365Y-35199D01*
X62337Y-35212D01*
X62310Y-35212D01*
X62286Y-35199D01*
X62275Y-35185D01*
X62265Y-35159D01*
X62258Y-35107D01*
X62267Y-35041D01*
X62286Y-34988D01*
X62303Y-34962D01*
X62317Y-34949D01*
X62345Y-34936D01*
X62908Y-34949D02*
X62884Y-34936D01*
X62845Y-34936D01*
X62803Y-34949D01*
X62774Y-34975D01*
X62758Y-35001D01*
X62738Y-35054D01*
X62733Y-35093D01*
X62740Y-35146D01*
X62749Y-35172D01*
X62772Y-35199D01*
X62810Y-35212D01*
X62836Y-35212D01*
X62877Y-35199D01*
X62892Y-35185D01*
X62903Y-35093D01*
X62851Y-35093D01*
X63007Y-35212D02*
X63042Y-34936D01*
X63164Y-35212D01*
X63199Y-34936D01*
X63296Y-35212D02*
X63331Y-34936D01*
X63396Y-34936D01*
X63434Y-34949D01*
X63457Y-34975D01*
X63467Y-35001D01*
X63473Y-35054D01*
X63468Y-35093D01*
X63449Y-35146D01*
X63432Y-35172D01*
X63403Y-35199D01*
X63361Y-35212D01*
X63296Y-35212D01*
X63777Y-34936D02*
X63935Y-34936D01*
X63821Y-35212D02*
X63856Y-34936D01*
X64000Y-34936D02*
X64149Y-35212D01*
X64184Y-34936D02*
X63965Y-35212D01*
X64274Y-34962D02*
X64288Y-34949D01*
X64316Y-34936D01*
X64382Y-34936D01*
X64406Y-34949D01*
X64418Y-34962D01*
X64427Y-34988D01*
X64424Y-35015D01*
X64406Y-35054D01*
X64228Y-35212D01*
X64399Y-35212D01*
X64885Y-35212D02*
X64810Y-35080D01*
X64728Y-35212D02*
X64763Y-34936D01*
X64868Y-34936D01*
X64892Y-34949D01*
X64904Y-34962D01*
X64913Y-34988D01*
X64908Y-35028D01*
X64892Y-35054D01*
X64877Y-35067D01*
X64850Y-35080D01*
X64745Y-35080D01*
X65012Y-34936D02*
X65161Y-35212D01*
X65196Y-34936D02*
X64977Y-35212D01*
X65286Y-34962D02*
X65300Y-34949D01*
X65328Y-34936D01*
X65394Y-34936D01*
X65418Y-34949D01*
X65430Y-34962D01*
X65439Y-34988D01*
X65436Y-35015D01*
X65418Y-35054D01*
X65240Y-35212D01*
X65411Y-35212D01*
X58169Y-42249D02*
X58206Y-42262D01*
X58272Y-42262D01*
X58300Y-42249D01*
X58315Y-42235D01*
X58331Y-42209D01*
X58334Y-42183D01*
X58324Y-42157D01*
X58313Y-42143D01*
X58289Y-42130D01*
X58237Y-42117D01*
X58213Y-42104D01*
X58202Y-42091D01*
X58192Y-42065D01*
X58195Y-42038D01*
X58212Y-42012D01*
X58226Y-41999D01*
X58254Y-41986D01*
X58320Y-41986D01*
X58357Y-41999D01*
X58550Y-42249D02*
X58522Y-42262D01*
X58469Y-42262D01*
X58445Y-42249D01*
X58435Y-42222D01*
X58448Y-42117D01*
X58465Y-42091D01*
X58492Y-42078D01*
X58545Y-42078D01*
X58570Y-42091D01*
X58579Y-42117D01*
X58576Y-42143D01*
X58442Y-42170D01*
X58703Y-42078D02*
X58680Y-42262D01*
X58700Y-42104D02*
X58715Y-42091D01*
X58742Y-42078D01*
X58782Y-42078D01*
X58807Y-42091D01*
X58816Y-42117D01*
X58798Y-42262D01*
X58919Y-42249D02*
X58943Y-42262D01*
X58995Y-42262D01*
X59024Y-42249D01*
X59040Y-42222D01*
X59042Y-42209D01*
X59032Y-42183D01*
X59007Y-42170D01*
X58968Y-42170D01*
X58943Y-42157D01*
X58934Y-42130D01*
X58935Y-42117D01*
X58952Y-42091D01*
X58979Y-42078D01*
X59018Y-42078D01*
X59044Y-42091D01*
X59192Y-42262D02*
X59168Y-42249D01*
X59157Y-42235D01*
X59147Y-42209D01*
X59157Y-42130D01*
X59173Y-42104D01*
X59188Y-42091D01*
X59215Y-42078D01*
X59255Y-42078D01*
X59280Y-42091D01*
X59291Y-42104D01*
X59301Y-42130D01*
X59291Y-42209D01*
X59275Y-42235D01*
X59260Y-42249D01*
X59232Y-42262D01*
X59192Y-42262D01*
X59403Y-42262D02*
X59426Y-42078D01*
X59420Y-42130D02*
X59436Y-42104D01*
X59451Y-42091D01*
X59478Y-42078D01*
X59505Y-42078D01*
X59902Y-42262D02*
X59937Y-41986D01*
X59904Y-42249D02*
X59876Y-42262D01*
X59823Y-42262D01*
X59799Y-42249D01*
X59788Y-42235D01*
X59778Y-42209D01*
X59788Y-42130D01*
X59804Y-42104D01*
X59819Y-42091D01*
X59846Y-42078D01*
X59899Y-42078D01*
X59924Y-42091D01*
X60141Y-42249D02*
X60113Y-42262D01*
X60060Y-42262D01*
X60036Y-42249D01*
X60026Y-42222D01*
X60039Y-42117D01*
X60056Y-42091D01*
X60083Y-42078D01*
X60136Y-42078D01*
X60161Y-42091D01*
X60170Y-42117D01*
X60167Y-42143D01*
X60033Y-42170D01*
X60601Y-42249D02*
X60573Y-42262D01*
X60520Y-42262D01*
X60496Y-42249D01*
X60485Y-42235D01*
X60475Y-42209D01*
X60485Y-42130D01*
X60501Y-42104D01*
X60516Y-42091D01*
X60543Y-42078D01*
X60596Y-42078D01*
X60621Y-42091D01*
X60757Y-42262D02*
X60733Y-42249D01*
X60722Y-42235D01*
X60712Y-42209D01*
X60722Y-42130D01*
X60738Y-42104D01*
X60753Y-42091D01*
X60780Y-42078D01*
X60820Y-42078D01*
X60845Y-42091D01*
X60856Y-42104D01*
X60866Y-42130D01*
X60856Y-42209D01*
X60840Y-42235D01*
X60825Y-42249D01*
X60797Y-42262D01*
X60757Y-42262D01*
X60968Y-42262D02*
X60991Y-42078D01*
X60985Y-42130D02*
X61001Y-42104D01*
X61016Y-42091D01*
X61043Y-42078D01*
X61070Y-42078D01*
X61139Y-42262D02*
X61162Y-42078D01*
X61156Y-42130D02*
X61172Y-42104D01*
X61187Y-42091D01*
X61214Y-42078D01*
X61241Y-42078D01*
X61310Y-42262D02*
X61333Y-42078D01*
X61345Y-41986D02*
X61330Y-41999D01*
X61342Y-42012D01*
X61356Y-41999D01*
X61345Y-41986D01*
X61342Y-42012D01*
X61548Y-42249D02*
X61520Y-42262D01*
X61467Y-42262D01*
X61443Y-42249D01*
X61433Y-42222D01*
X61446Y-42117D01*
X61463Y-42091D01*
X61490Y-42078D01*
X61543Y-42078D01*
X61568Y-42091D01*
X61577Y-42117D01*
X61574Y-42143D01*
X61440Y-42170D01*
X61701Y-42078D02*
X61678Y-42262D01*
X61698Y-42104D02*
X61713Y-42091D01*
X61740Y-42078D01*
X61780Y-42078D01*
X61805Y-42091D01*
X61814Y-42117D01*
X61796Y-42262D01*
X61911Y-42078D02*
X62016Y-42078D01*
X61963Y-41986D02*
X61933Y-42222D01*
X61943Y-42249D01*
X61967Y-42262D01*
X61993Y-42262D01*
X62193Y-42249D02*
X62165Y-42262D01*
X62112Y-42262D01*
X62088Y-42249D01*
X62078Y-42222D01*
X62091Y-42117D01*
X62108Y-42091D01*
X62135Y-42078D01*
X62188Y-42078D01*
X62213Y-42091D01*
X62222Y-42117D01*
X62219Y-42143D01*
X62085Y-42170D01*
X57546Y-42612D02*
X57756Y-42612D01*
X57638Y-42717D02*
X57665Y-42506D01*
X58041Y-42441D02*
X57910Y-42441D01*
X57880Y-42572D01*
X57895Y-42559D01*
X57923Y-42546D01*
X57989Y-42546D01*
X58013Y-42559D01*
X58024Y-42572D01*
X58034Y-42598D01*
X58026Y-42664D01*
X58010Y-42690D01*
X57995Y-42704D01*
X57967Y-42717D01*
X57901Y-42717D01*
X57877Y-42704D01*
X57866Y-42690D01*
X58133Y-42441D02*
X58190Y-42717D01*
X58317Y-42441D01*
X60022Y-42454D02*
X59998Y-42441D01*
X59959Y-42441D01*
X59917Y-42454D01*
X59888Y-42480D01*
X59872Y-42506D01*
X59852Y-42559D01*
X59847Y-42598D01*
X59854Y-42651D01*
X59863Y-42677D01*
X59886Y-42704D01*
X59924Y-42717D01*
X59950Y-42717D01*
X59991Y-42704D01*
X60006Y-42690D01*
X60017Y-42598D01*
X59965Y-42598D01*
X60121Y-42717D02*
X60156Y-42441D01*
X60278Y-42717D01*
X60313Y-42441D01*
X60410Y-42717D02*
X60445Y-42441D01*
X60510Y-42441D01*
X60548Y-42454D01*
X60571Y-42480D01*
X60581Y-42506D01*
X60587Y-42559D01*
X60582Y-42598D01*
X60563Y-42651D01*
X60546Y-42677D01*
X60517Y-42704D01*
X60475Y-42717D01*
X60410Y-42717D01*
X61941Y-42441D02*
X61998Y-42717D01*
X62125Y-42441D01*
X62270Y-42441D02*
X62323Y-42441D01*
X62347Y-42454D01*
X62370Y-42480D01*
X62377Y-42533D01*
X62366Y-42625D01*
X62345Y-42677D01*
X62316Y-42704D01*
X62288Y-42717D01*
X62235Y-42717D01*
X62211Y-42704D01*
X62188Y-42677D01*
X62182Y-42625D01*
X62193Y-42533D01*
X62213Y-42480D01*
X62242Y-42454D01*
X62270Y-42441D01*
X62507Y-42441D02*
X62479Y-42664D01*
X62489Y-42690D01*
X62500Y-42704D01*
X62524Y-42717D01*
X62577Y-42717D01*
X62605Y-42704D01*
X62620Y-42690D01*
X62636Y-42664D01*
X62664Y-42441D01*
X62756Y-42441D02*
X62914Y-42441D01*
X62800Y-42717D02*
X62835Y-42441D01*
X52218Y-44399D02*
X52255Y-44412D01*
X52321Y-44412D01*
X52349Y-44399D01*
X52364Y-44385D01*
X52380Y-44359D01*
X52383Y-44333D01*
X52373Y-44307D01*
X52362Y-44293D01*
X52338Y-44280D01*
X52286Y-44267D01*
X52262Y-44254D01*
X52251Y-44241D01*
X52241Y-44215D01*
X52244Y-44188D01*
X52261Y-44162D01*
X52275Y-44149D01*
X52303Y-44136D01*
X52369Y-44136D01*
X52406Y-44149D01*
X52599Y-44399D02*
X52571Y-44412D01*
X52518Y-44412D01*
X52494Y-44399D01*
X52484Y-44372D01*
X52497Y-44267D01*
X52514Y-44241D01*
X52541Y-44228D01*
X52594Y-44228D01*
X52619Y-44241D01*
X52628Y-44267D01*
X52625Y-44293D01*
X52491Y-44320D01*
X52752Y-44228D02*
X52729Y-44412D01*
X52749Y-44254D02*
X52764Y-44241D01*
X52791Y-44228D01*
X52831Y-44228D01*
X52856Y-44241D01*
X52865Y-44267D01*
X52847Y-44412D01*
X52968Y-44399D02*
X52992Y-44412D01*
X53044Y-44412D01*
X53073Y-44399D01*
X53089Y-44372D01*
X53091Y-44359D01*
X53081Y-44333D01*
X53056Y-44320D01*
X53017Y-44320D01*
X52992Y-44307D01*
X52983Y-44280D01*
X52984Y-44267D01*
X53001Y-44241D01*
X53028Y-44228D01*
X53067Y-44228D01*
X53093Y-44241D01*
X53241Y-44412D02*
X53217Y-44399D01*
X53206Y-44385D01*
X53196Y-44359D01*
X53206Y-44280D01*
X53222Y-44254D01*
X53237Y-44241D01*
X53264Y-44228D01*
X53304Y-44228D01*
X53329Y-44241D01*
X53340Y-44254D01*
X53350Y-44280D01*
X53340Y-44359D01*
X53324Y-44385D01*
X53309Y-44399D01*
X53281Y-44412D01*
X53241Y-44412D01*
X53452Y-44412D02*
X53475Y-44228D01*
X53469Y-44280D02*
X53485Y-44254D01*
X53500Y-44241D01*
X53527Y-44228D01*
X53554Y-44228D01*
X53951Y-44412D02*
X53986Y-44136D01*
X53953Y-44399D02*
X53925Y-44412D01*
X53872Y-44412D01*
X53848Y-44399D01*
X53837Y-44385D01*
X53827Y-44359D01*
X53837Y-44280D01*
X53853Y-44254D01*
X53868Y-44241D01*
X53895Y-44228D01*
X53948Y-44228D01*
X53973Y-44241D01*
X54190Y-44399D02*
X54162Y-44412D01*
X54109Y-44412D01*
X54085Y-44399D01*
X54075Y-44372D01*
X54088Y-44267D01*
X54105Y-44241D01*
X54132Y-44228D01*
X54185Y-44228D01*
X54210Y-44241D01*
X54219Y-44267D01*
X54216Y-44293D01*
X54082Y-44320D01*
X54513Y-44228D02*
X54618Y-44228D01*
X54565Y-44136D02*
X54535Y-44372D01*
X54545Y-44399D01*
X54569Y-44412D01*
X54595Y-44412D01*
X54795Y-44399D02*
X54767Y-44412D01*
X54714Y-44412D01*
X54690Y-44399D01*
X54680Y-44372D01*
X54693Y-44267D01*
X54710Y-44241D01*
X54737Y-44228D01*
X54790Y-44228D01*
X54815Y-44241D01*
X54824Y-44267D01*
X54821Y-44293D01*
X54687Y-44320D01*
X54925Y-44412D02*
X54948Y-44228D01*
X54945Y-44254D02*
X54960Y-44241D01*
X54987Y-44228D01*
X55027Y-44228D01*
X55052Y-44241D01*
X55061Y-44267D01*
X55043Y-44412D01*
X55061Y-44267D02*
X55078Y-44241D01*
X55105Y-44228D01*
X55145Y-44228D01*
X55170Y-44241D01*
X55179Y-44267D01*
X55161Y-44412D01*
X55316Y-44228D02*
X55282Y-44504D01*
X55315Y-44241D02*
X55342Y-44228D01*
X55395Y-44228D01*
X55420Y-44241D01*
X55431Y-44254D01*
X55441Y-44280D01*
X55431Y-44359D01*
X55415Y-44385D01*
X55400Y-44399D01*
X55372Y-44412D01*
X55319Y-44412D01*
X55295Y-44399D01*
X55547Y-44385D02*
X55558Y-44399D01*
X55543Y-44412D01*
X55532Y-44399D01*
X55547Y-44385D01*
X55543Y-44412D01*
G54D11*
X43415Y-26203D02*
X43428Y-26218D01*
X43453Y-26263D01*
X43464Y-26293D01*
X43473Y-26338D01*
X43479Y-26413D01*
X43471Y-26473D01*
X43447Y-26548D01*
X43426Y-26593D01*
X43408Y-26623D01*
X43372Y-26668D01*
X43355Y-26683D01*
X43265Y-26443D02*
X43025Y-26443D01*
X42935Y-26203D02*
X42918Y-26218D01*
X42883Y-26263D01*
X42864Y-26293D01*
X42843Y-26338D01*
X42819Y-26413D01*
X42811Y-26473D01*
X42817Y-26548D01*
X42826Y-26593D01*
X42838Y-26623D01*
X42862Y-26668D01*
X42875Y-26683D01*
X42453Y-26338D02*
X42410Y-26323D01*
X42335Y-26323D01*
X42303Y-26338D01*
X42286Y-26353D01*
X42268Y-26383D01*
X42264Y-26413D01*
X42275Y-26443D01*
X42288Y-26458D01*
X42316Y-26473D01*
X42375Y-26488D01*
X42403Y-26503D01*
X42416Y-26518D01*
X42427Y-26548D01*
X42423Y-26578D01*
X42405Y-26608D01*
X42388Y-26623D01*
X42356Y-26638D01*
X42281Y-26638D01*
X42238Y-26623D01*
X42140Y-26323D02*
X42114Y-26533D01*
X42101Y-26638D02*
X42118Y-26623D01*
X42105Y-26608D01*
X42088Y-26623D01*
X42101Y-26638D01*
X42105Y-26608D01*
X41990Y-26323D02*
X41964Y-26533D01*
X41971Y-26473D02*
X41953Y-26503D01*
X41936Y-26518D01*
X41904Y-26533D01*
X41874Y-26533D01*
X41673Y-26338D02*
X41705Y-26323D01*
X41765Y-26323D01*
X41793Y-26338D01*
X41805Y-26368D01*
X41790Y-26488D01*
X41771Y-26518D01*
X41739Y-26533D01*
X41679Y-26533D01*
X41651Y-26518D01*
X41640Y-26488D01*
X41643Y-26458D01*
X41797Y-26428D01*
X41499Y-26533D02*
X41525Y-26323D01*
X41503Y-26503D02*
X41486Y-26518D01*
X41454Y-26533D01*
X41409Y-26533D01*
X41381Y-26518D01*
X41370Y-26488D01*
X41390Y-26323D01*
X40925Y-26203D02*
X40938Y-26218D01*
X40963Y-26263D01*
X40974Y-26293D01*
X40983Y-26338D01*
X40989Y-26413D01*
X40981Y-26473D01*
X40957Y-26548D01*
X40936Y-26593D01*
X40918Y-26623D01*
X40882Y-26668D01*
X40865Y-26683D01*
X40775Y-26443D02*
X40535Y-26443D01*
X40670Y-26323D02*
X40640Y-26563D01*
X40445Y-26203D02*
X40428Y-26218D01*
X40393Y-26263D01*
X40374Y-26293D01*
X40353Y-26338D01*
X40329Y-26413D01*
X40321Y-26473D01*
X40327Y-26548D01*
X40336Y-26593D01*
X40348Y-26623D01*
X40372Y-26668D01*
X40385Y-26683D01*
G54D12*
X38405Y-53777D02*
X38255Y-53777D01*
X38294Y-53462D01*
X38510Y-53777D02*
X38536Y-53567D01*
X38549Y-53462D02*
X38532Y-53477D01*
X38545Y-53492D01*
X38562Y-53477D01*
X38549Y-53462D01*
X38545Y-53492D01*
X38686Y-53567D02*
X38660Y-53777D01*
X38682Y-53597D02*
X38699Y-53582D01*
X38731Y-53567D01*
X38776Y-53567D01*
X38804Y-53582D01*
X38815Y-53612D01*
X38795Y-53777D01*
X39067Y-53762D02*
X39035Y-53777D01*
X38975Y-53777D01*
X38947Y-53762D01*
X38935Y-53732D01*
X38950Y-53612D01*
X38969Y-53582D01*
X39001Y-53567D01*
X39061Y-53567D01*
X39089Y-53582D01*
X39100Y-53612D01*
X39097Y-53642D01*
X38943Y-53672D01*
X39451Y-53567D02*
X39500Y-53777D01*
X39601Y-53567D01*
X39740Y-53777D02*
X39712Y-53762D01*
X39699Y-53747D01*
X39687Y-53717D01*
X39699Y-53627D01*
X39717Y-53597D01*
X39734Y-53582D01*
X39766Y-53567D01*
X39811Y-53567D01*
X39839Y-53582D01*
X39852Y-53597D01*
X39864Y-53627D01*
X39852Y-53717D01*
X39834Y-53747D01*
X39817Y-53762D01*
X39785Y-53777D01*
X39740Y-53777D01*
X40025Y-53777D02*
X39997Y-53762D01*
X39985Y-53732D01*
X40019Y-53462D01*
X40126Y-53567D02*
X40246Y-53567D01*
X40184Y-53462D02*
X40150Y-53732D01*
X40162Y-53762D01*
X40190Y-53777D01*
X40220Y-53777D01*
X40460Y-53777D02*
X40480Y-53612D01*
X40469Y-53582D01*
X40441Y-53567D01*
X40381Y-53567D01*
X40349Y-53582D01*
X40462Y-53762D02*
X40430Y-53777D01*
X40355Y-53777D01*
X40327Y-53762D01*
X40315Y-53732D01*
X40319Y-53702D01*
X40338Y-53672D01*
X40370Y-53657D01*
X40445Y-53657D01*
X40477Y-53642D01*
X40771Y-53567D02*
X40739Y-53822D01*
X40720Y-53852D01*
X40703Y-53867D01*
X40672Y-53882D01*
X40627Y-53882D01*
X40598Y-53867D01*
X40747Y-53762D02*
X40715Y-53777D01*
X40655Y-53777D01*
X40627Y-53762D01*
X40614Y-53747D01*
X40602Y-53717D01*
X40614Y-53627D01*
X40632Y-53597D01*
X40649Y-53582D01*
X40681Y-53567D01*
X40741Y-53567D01*
X40769Y-53582D01*
X41017Y-53762D02*
X40985Y-53777D01*
X40925Y-53777D01*
X40897Y-53762D01*
X40885Y-53732D01*
X40900Y-53612D01*
X40919Y-53582D01*
X40951Y-53567D01*
X41011Y-53567D01*
X41039Y-53582D01*
X41050Y-53612D01*
X41047Y-53642D01*
X40893Y-53672D01*
X38211Y-53972D02*
X38277Y-54287D01*
X38421Y-53972D01*
X38481Y-53972D02*
X38661Y-53972D01*
X38532Y-54287D02*
X38571Y-53972D01*
X38907Y-54287D02*
X38821Y-54137D01*
X38727Y-54287D02*
X38766Y-53972D01*
X38886Y-53972D01*
X38914Y-53987D01*
X38927Y-54002D01*
X38939Y-54032D01*
X38933Y-54077D01*
X38914Y-54107D01*
X38897Y-54122D01*
X38866Y-54137D01*
X38746Y-54137D01*
X40444Y-53987D02*
X40416Y-53972D01*
X40371Y-53972D01*
X40324Y-53987D01*
X40291Y-54017D01*
X40272Y-54047D01*
X40249Y-54107D01*
X40244Y-54152D01*
X40251Y-54212D01*
X40262Y-54242D01*
X40289Y-54272D01*
X40332Y-54287D01*
X40362Y-54287D01*
X40409Y-54272D01*
X40426Y-54257D01*
X40439Y-54152D01*
X40379Y-54152D01*
X40557Y-54287D02*
X40596Y-53972D01*
X40737Y-54287D01*
X40776Y-53972D01*
X40887Y-54287D02*
X40926Y-53972D01*
X41001Y-53972D01*
X41044Y-53987D01*
X41071Y-54017D01*
X41082Y-54047D01*
X41089Y-54107D01*
X41084Y-54152D01*
X41061Y-54212D01*
X41042Y-54242D01*
X41009Y-54272D01*
X40962Y-54287D01*
X40887Y-54287D01*
G54D11*
X77137Y-31697D02*
X77137Y-31547D01*
X77227Y-31738D02*
X76912Y-31594D01*
X77227Y-31528D01*
X77227Y-31288D02*
X76912Y-31249D01*
X77212Y-31286D02*
X77227Y-31318D01*
X77227Y-31378D01*
X77212Y-31406D01*
X77197Y-31419D01*
X77167Y-31431D01*
X77077Y-31419D01*
X77047Y-31401D01*
X77032Y-31384D01*
X77017Y-31352D01*
X77017Y-31292D01*
X77032Y-31264D01*
X77227Y-31003D02*
X76912Y-30964D01*
X77212Y-31001D02*
X77227Y-31033D01*
X77227Y-31093D01*
X77212Y-31121D01*
X77197Y-31134D01*
X77167Y-31146D01*
X77077Y-31134D01*
X77047Y-31116D01*
X77032Y-31099D01*
X77017Y-31067D01*
X77017Y-31007D01*
X77032Y-30979D01*
X77227Y-30853D02*
X77017Y-30827D01*
X76912Y-30814D02*
X76927Y-30831D01*
X76942Y-30818D01*
X76927Y-30801D01*
X76912Y-30814D01*
X76942Y-30818D01*
X77017Y-30722D02*
X77017Y-30602D01*
X76912Y-30664D02*
X77182Y-30698D01*
X77212Y-30686D01*
X77227Y-30658D01*
X77227Y-30628D01*
X77227Y-30523D02*
X77017Y-30497D01*
X76912Y-30484D02*
X76927Y-30501D01*
X76942Y-30488D01*
X76927Y-30471D01*
X76912Y-30484D01*
X76942Y-30488D01*
X77227Y-30328D02*
X77212Y-30356D01*
X77197Y-30369D01*
X77167Y-30381D01*
X77077Y-30369D01*
X77047Y-30351D01*
X77032Y-30334D01*
X77017Y-30302D01*
X77017Y-30257D01*
X77032Y-30229D01*
X77047Y-30216D01*
X77077Y-30204D01*
X77167Y-30216D01*
X77197Y-30234D01*
X77212Y-30251D01*
X77227Y-30283D01*
X77227Y-30328D01*
X77017Y-30062D02*
X77227Y-30088D01*
X77047Y-30066D02*
X77032Y-30049D01*
X77017Y-30017D01*
X77017Y-29972D01*
X77032Y-29944D01*
X77062Y-29933D01*
X77227Y-29953D01*
X77227Y-29668D02*
X77062Y-29648D01*
X77032Y-29659D01*
X77017Y-29687D01*
X77017Y-29747D01*
X77032Y-29779D01*
X77212Y-29666D02*
X77227Y-29698D01*
X77227Y-29773D01*
X77212Y-29801D01*
X77182Y-29813D01*
X77152Y-29809D01*
X77122Y-29790D01*
X77107Y-29758D01*
X77107Y-29683D01*
X77092Y-29651D01*
X77227Y-29473D02*
X77212Y-29501D01*
X77182Y-29513D01*
X76912Y-29479D01*
X77212Y-29126D02*
X77227Y-29083D01*
X77227Y-29008D01*
X77212Y-28976D01*
X77197Y-28959D01*
X77167Y-28941D01*
X77137Y-28937D01*
X77107Y-28948D01*
X77092Y-28961D01*
X77077Y-28989D01*
X77062Y-29048D01*
X77047Y-29076D01*
X77032Y-29089D01*
X77002Y-29100D01*
X76972Y-29096D01*
X76942Y-29078D01*
X76927Y-29061D01*
X76912Y-29029D01*
X76912Y-28954D01*
X76927Y-28911D01*
X77227Y-28813D02*
X77017Y-28787D01*
X76912Y-28774D02*
X76927Y-28791D01*
X76942Y-28778D01*
X76927Y-28761D01*
X76912Y-28774D01*
X76942Y-28778D01*
X77017Y-28502D02*
X77272Y-28534D01*
X77302Y-28553D01*
X77317Y-28570D01*
X77332Y-28601D01*
X77332Y-28646D01*
X77317Y-28675D01*
X77212Y-28526D02*
X77227Y-28558D01*
X77227Y-28618D01*
X77212Y-28646D01*
X77197Y-28659D01*
X77167Y-28671D01*
X77077Y-28659D01*
X77047Y-28641D01*
X77032Y-28624D01*
X77017Y-28592D01*
X77017Y-28532D01*
X77032Y-28504D01*
X77017Y-28352D02*
X77227Y-28378D01*
X77047Y-28356D02*
X77032Y-28339D01*
X77017Y-28307D01*
X77017Y-28262D01*
X77032Y-28234D01*
X77062Y-28223D01*
X77227Y-28243D01*
X77227Y-27958D02*
X77062Y-27938D01*
X77032Y-27949D01*
X77017Y-27977D01*
X77017Y-28037D01*
X77032Y-28069D01*
X77212Y-27956D02*
X77227Y-27988D01*
X77227Y-28063D01*
X77212Y-28091D01*
X77182Y-28103D01*
X77152Y-28099D01*
X77122Y-28080D01*
X77107Y-28048D01*
X77107Y-27973D01*
X77092Y-27941D01*
X77227Y-27763D02*
X77212Y-27791D01*
X77182Y-27803D01*
X76912Y-27769D01*
X77212Y-27656D02*
X77227Y-27628D01*
X77227Y-27568D01*
X77212Y-27536D01*
X77182Y-27518D01*
X77167Y-27516D01*
X77137Y-27527D01*
X77122Y-27555D01*
X77122Y-27600D01*
X77107Y-27628D01*
X77077Y-27639D01*
X77062Y-27638D01*
X77032Y-27619D01*
X77017Y-27587D01*
X77017Y-27542D01*
X77032Y-27514D01*
X35393Y-46635D02*
X35393Y-46875D01*
X35273Y-46740D02*
X35513Y-46770D01*
X35588Y-47199D02*
X35588Y-47049D01*
X35438Y-47015D01*
X35453Y-47032D01*
X35468Y-47064D01*
X35468Y-47139D01*
X35453Y-47167D01*
X35438Y-47180D01*
X35408Y-47192D01*
X35333Y-47182D01*
X35303Y-47164D01*
X35288Y-47147D01*
X35273Y-47115D01*
X35273Y-47040D01*
X35288Y-47012D01*
X35303Y-46999D01*
X35588Y-47304D02*
X35273Y-47370D01*
X35588Y-47514D01*
X35573Y-48742D02*
X35588Y-48714D01*
X35588Y-48669D01*
X35573Y-48622D01*
X35543Y-48589D01*
X35513Y-48570D01*
X35453Y-48547D01*
X35408Y-48542D01*
X35348Y-48549D01*
X35318Y-48560D01*
X35288Y-48587D01*
X35273Y-48630D01*
X35273Y-48660D01*
X35288Y-48707D01*
X35303Y-48724D01*
X35408Y-48737D01*
X35408Y-48677D01*
X35273Y-48855D02*
X35588Y-48894D01*
X35273Y-49035D01*
X35588Y-49074D01*
X35273Y-49185D02*
X35588Y-49224D01*
X35588Y-49299D01*
X35573Y-49342D01*
X35543Y-49369D01*
X35513Y-49380D01*
X35453Y-49387D01*
X35408Y-49382D01*
X35348Y-49359D01*
X35318Y-49340D01*
X35288Y-49307D01*
X35273Y-49260D01*
X35273Y-49185D01*
X61842Y-51277D02*
X61881Y-50962D01*
X62001Y-50962D01*
X62029Y-50977D01*
X62042Y-50992D01*
X62054Y-51022D01*
X62048Y-51067D01*
X62029Y-51097D01*
X62012Y-51112D01*
X61981Y-51127D01*
X61861Y-51127D01*
X62157Y-51277D02*
X62183Y-51067D01*
X62196Y-50962D02*
X62179Y-50977D01*
X62192Y-50992D01*
X62209Y-50977D01*
X62196Y-50962D01*
X62192Y-50992D01*
X62333Y-51067D02*
X62307Y-51277D01*
X62329Y-51097D02*
X62346Y-51082D01*
X62378Y-51067D01*
X62423Y-51067D01*
X62451Y-51082D01*
X62462Y-51112D01*
X62442Y-51277D01*
X62828Y-51067D02*
X62862Y-51277D01*
X62941Y-51127D01*
X62982Y-51277D01*
X63068Y-51067D01*
X63162Y-51277D02*
X63188Y-51067D01*
X63201Y-50962D02*
X63184Y-50977D01*
X63197Y-50992D01*
X63214Y-50977D01*
X63201Y-50962D01*
X63197Y-50992D01*
X63293Y-51067D02*
X63413Y-51067D01*
X63351Y-50962D02*
X63317Y-51232D01*
X63329Y-51262D01*
X63357Y-51277D01*
X63387Y-51277D01*
X63492Y-51277D02*
X63531Y-50962D01*
X63627Y-51277D02*
X63647Y-51112D01*
X63636Y-51082D01*
X63608Y-51067D01*
X63563Y-51067D01*
X63531Y-51082D01*
X63514Y-51097D01*
X63998Y-51067D02*
X64118Y-51067D01*
X64017Y-51277D02*
X64051Y-51007D01*
X64069Y-50977D01*
X64101Y-50962D01*
X64131Y-50962D01*
X64197Y-51277D02*
X64223Y-51067D01*
X64236Y-50962D02*
X64219Y-50977D01*
X64232Y-50992D01*
X64249Y-50977D01*
X64236Y-50962D01*
X64232Y-50992D01*
X64392Y-51277D02*
X64364Y-51262D01*
X64352Y-51232D01*
X64386Y-50962D01*
X64493Y-51067D02*
X64613Y-51067D01*
X64551Y-50962D02*
X64517Y-51232D01*
X64529Y-51262D01*
X64557Y-51277D01*
X64587Y-51277D01*
X64814Y-51262D02*
X64782Y-51277D01*
X64722Y-51277D01*
X64694Y-51262D01*
X64682Y-51232D01*
X64697Y-51112D01*
X64716Y-51082D01*
X64748Y-51067D01*
X64808Y-51067D01*
X64836Y-51082D01*
X64847Y-51112D01*
X64844Y-51142D01*
X64690Y-51172D01*
X64962Y-51277D02*
X64988Y-51067D01*
X64981Y-51127D02*
X64999Y-51097D01*
X65016Y-51082D01*
X65048Y-51067D01*
X65078Y-51067D01*
X65423Y-51067D02*
X65652Y-51157D01*
X65401Y-51247D01*
X66027Y-51277D02*
X66066Y-50962D01*
X66143Y-51187D01*
X66276Y-50962D01*
X66237Y-51277D01*
X66432Y-51277D02*
X66404Y-51262D01*
X66391Y-51247D01*
X66379Y-51217D01*
X66391Y-51127D01*
X66409Y-51097D01*
X66426Y-51082D01*
X66458Y-51067D01*
X66503Y-51067D01*
X66531Y-51082D01*
X66544Y-51097D01*
X66556Y-51127D01*
X66544Y-51217D01*
X66526Y-51247D01*
X66509Y-51262D01*
X66477Y-51277D01*
X66432Y-51277D01*
X66668Y-51067D02*
X66717Y-51277D01*
X66818Y-51067D01*
X67034Y-51262D02*
X67002Y-51277D01*
X66942Y-51277D01*
X66914Y-51262D01*
X66902Y-51232D01*
X66917Y-51112D01*
X66936Y-51082D01*
X66968Y-51067D01*
X67028Y-51067D01*
X67056Y-51082D01*
X67067Y-51112D01*
X67064Y-51142D01*
X66910Y-51172D01*
X67182Y-51277D02*
X67208Y-51067D01*
X67204Y-51097D02*
X67221Y-51082D01*
X67253Y-51067D01*
X67298Y-51067D01*
X67326Y-51082D01*
X67337Y-51112D01*
X67317Y-51277D01*
X67337Y-51112D02*
X67356Y-51082D01*
X67388Y-51067D01*
X67433Y-51067D01*
X67461Y-51082D01*
X67472Y-51112D01*
X67452Y-51277D01*
X67724Y-51262D02*
X67692Y-51277D01*
X67632Y-51277D01*
X67604Y-51262D01*
X67592Y-51232D01*
X67607Y-51112D01*
X67626Y-51082D01*
X67658Y-51067D01*
X67718Y-51067D01*
X67746Y-51082D01*
X67757Y-51112D01*
X67754Y-51142D01*
X67600Y-51172D01*
X67898Y-51067D02*
X67872Y-51277D01*
X67894Y-51097D02*
X67911Y-51082D01*
X67943Y-51067D01*
X67988Y-51067D01*
X68016Y-51082D01*
X68027Y-51112D01*
X68007Y-51277D01*
X68138Y-51067D02*
X68258Y-51067D01*
X68196Y-50962D02*
X68162Y-51232D01*
X68174Y-51262D01*
X68202Y-51277D01*
X68232Y-51277D01*
X68564Y-51262D02*
X68592Y-51277D01*
X68652Y-51277D01*
X68684Y-51262D01*
X68702Y-51232D01*
X68704Y-51217D01*
X68693Y-51187D01*
X68665Y-51172D01*
X68620Y-51172D01*
X68592Y-51157D01*
X68581Y-51127D01*
X68582Y-51112D01*
X68601Y-51082D01*
X68633Y-51067D01*
X68678Y-51067D01*
X68706Y-51082D01*
X68954Y-51262D02*
X68922Y-51277D01*
X68862Y-51277D01*
X68834Y-51262D01*
X68822Y-51232D01*
X68837Y-51112D01*
X68856Y-51082D01*
X68888Y-51067D01*
X68948Y-51067D01*
X68976Y-51082D01*
X68987Y-51112D01*
X68984Y-51142D01*
X68830Y-51172D01*
X69128Y-51067D02*
X69102Y-51277D01*
X69124Y-51097D02*
X69141Y-51082D01*
X69173Y-51067D01*
X69218Y-51067D01*
X69246Y-51082D01*
X69257Y-51112D01*
X69237Y-51277D01*
X69374Y-51262D02*
X69402Y-51277D01*
X69462Y-51277D01*
X69494Y-51262D01*
X69512Y-51232D01*
X69514Y-51217D01*
X69503Y-51187D01*
X69475Y-51172D01*
X69430Y-51172D01*
X69402Y-51157D01*
X69391Y-51127D01*
X69392Y-51112D01*
X69411Y-51082D01*
X69443Y-51067D01*
X69488Y-51067D01*
X69516Y-51082D01*
X69687Y-51277D02*
X69659Y-51262D01*
X69646Y-51247D01*
X69634Y-51217D01*
X69646Y-51127D01*
X69664Y-51097D01*
X69681Y-51082D01*
X69713Y-51067D01*
X69758Y-51067D01*
X69786Y-51082D01*
X69799Y-51097D01*
X69811Y-51127D01*
X69799Y-51217D01*
X69781Y-51247D01*
X69764Y-51262D01*
X69732Y-51277D01*
X69687Y-51277D01*
X69927Y-51277D02*
X69953Y-51067D01*
X69946Y-51127D02*
X69964Y-51097D01*
X69981Y-51082D01*
X70013Y-51067D01*
X70043Y-51067D01*
X70109Y-51262D02*
X70137Y-51277D01*
X70197Y-51277D01*
X70229Y-51262D01*
X70247Y-51232D01*
X70249Y-51217D01*
X70238Y-51187D01*
X70210Y-51172D01*
X70165Y-51172D01*
X70137Y-51157D01*
X70126Y-51127D01*
X70127Y-51112D01*
X70146Y-51082D01*
X70178Y-51067D01*
X70223Y-51067D01*
X70251Y-51082D01*
X76777Y-48745D02*
X76462Y-48706D01*
X76462Y-48586D01*
X76477Y-48558D01*
X76492Y-48545D01*
X76522Y-48533D01*
X76567Y-48539D01*
X76597Y-48558D01*
X76612Y-48575D01*
X76627Y-48606D01*
X76627Y-48726D01*
X76777Y-48430D02*
X76567Y-48404D01*
X76462Y-48391D02*
X76477Y-48408D01*
X76492Y-48395D01*
X76477Y-48378D01*
X76462Y-48391D01*
X76492Y-48395D01*
X76567Y-48254D02*
X76777Y-48280D01*
X76597Y-48258D02*
X76582Y-48241D01*
X76567Y-48209D01*
X76567Y-48164D01*
X76582Y-48136D01*
X76612Y-48125D01*
X76777Y-48145D01*
X76567Y-47759D02*
X76777Y-47725D01*
X76627Y-47646D01*
X76777Y-47605D01*
X76567Y-47519D01*
X76777Y-47425D02*
X76567Y-47399D01*
X76462Y-47386D02*
X76477Y-47403D01*
X76492Y-47390D01*
X76477Y-47373D01*
X76462Y-47386D01*
X76492Y-47390D01*
X76567Y-47294D02*
X76567Y-47174D01*
X76462Y-47236D02*
X76732Y-47270D01*
X76762Y-47258D01*
X76777Y-47230D01*
X76777Y-47200D01*
X76777Y-47095D02*
X76462Y-47056D01*
X76777Y-46960D02*
X76612Y-46940D01*
X76582Y-46951D01*
X76567Y-46979D01*
X76567Y-47024D01*
X76582Y-47056D01*
X76597Y-47073D01*
X76567Y-46589D02*
X76567Y-46469D01*
X76777Y-46570D02*
X76507Y-46536D01*
X76477Y-46518D01*
X76462Y-46486D01*
X76462Y-46456D01*
X76777Y-46390D02*
X76567Y-46364D01*
X76462Y-46351D02*
X76477Y-46368D01*
X76492Y-46355D01*
X76477Y-46338D01*
X76462Y-46351D01*
X76492Y-46355D01*
X76777Y-46195D02*
X76762Y-46223D01*
X76732Y-46235D01*
X76462Y-46201D01*
X76567Y-46094D02*
X76567Y-45974D01*
X76462Y-46036D02*
X76732Y-46070D01*
X76762Y-46058D01*
X76777Y-46030D01*
X76777Y-46000D01*
X76762Y-45773D02*
X76777Y-45805D01*
X76777Y-45865D01*
X76762Y-45893D01*
X76732Y-45905D01*
X76612Y-45890D01*
X76582Y-45871D01*
X76567Y-45839D01*
X76567Y-45779D01*
X76582Y-45751D01*
X76612Y-45740D01*
X76642Y-45743D01*
X76672Y-45897D01*
X76777Y-45625D02*
X76567Y-45599D01*
X76627Y-45606D02*
X76597Y-45588D01*
X76582Y-45571D01*
X76567Y-45539D01*
X76567Y-45509D01*
X76567Y-45164D02*
X76657Y-44935D01*
X76747Y-45186D01*
X76777Y-44560D02*
X76462Y-44521D01*
X76687Y-44444D01*
X76462Y-44311D01*
X76777Y-44350D01*
X76777Y-44065D02*
X76612Y-44045D01*
X76582Y-44056D01*
X76567Y-44084D01*
X76567Y-44144D01*
X76582Y-44176D01*
X76762Y-44063D02*
X76777Y-44095D01*
X76777Y-44170D01*
X76762Y-44198D01*
X76732Y-44210D01*
X76702Y-44206D01*
X76672Y-44187D01*
X76657Y-44155D01*
X76657Y-44080D01*
X76642Y-44048D01*
X76567Y-43754D02*
X76822Y-43786D01*
X76852Y-43805D01*
X76867Y-43822D01*
X76882Y-43853D01*
X76882Y-43898D01*
X76867Y-43927D01*
X76762Y-43778D02*
X76777Y-43810D01*
X76777Y-43870D01*
X76762Y-43898D01*
X76747Y-43911D01*
X76717Y-43923D01*
X76627Y-43911D01*
X76597Y-43893D01*
X76582Y-43876D01*
X76567Y-43844D01*
X76567Y-43784D01*
X76582Y-43756D01*
X76567Y-43604D02*
X76777Y-43630D01*
X76597Y-43608D02*
X76582Y-43591D01*
X76567Y-43559D01*
X76567Y-43514D01*
X76582Y-43486D01*
X76612Y-43475D01*
X76777Y-43495D01*
X76762Y-43223D02*
X76777Y-43255D01*
X76777Y-43315D01*
X76762Y-43343D01*
X76732Y-43355D01*
X76612Y-43340D01*
X76582Y-43321D01*
X76567Y-43289D01*
X76567Y-43229D01*
X76582Y-43201D01*
X76612Y-43190D01*
X76642Y-43193D01*
X76672Y-43347D01*
X76567Y-43094D02*
X76567Y-42974D01*
X76462Y-43036D02*
X76732Y-43070D01*
X76762Y-43058D01*
X76777Y-43030D01*
X76777Y-43000D01*
X76777Y-42895D02*
X76567Y-42869D01*
X76462Y-42856D02*
X76477Y-42873D01*
X76492Y-42860D01*
X76477Y-42843D01*
X76462Y-42856D01*
X76492Y-42860D01*
X76762Y-42608D02*
X76777Y-42640D01*
X76777Y-42700D01*
X76762Y-42728D01*
X76747Y-42741D01*
X76717Y-42753D01*
X76627Y-42741D01*
X76597Y-42723D01*
X76582Y-42706D01*
X76567Y-42674D01*
X76567Y-42614D01*
X76582Y-42586D01*
X76762Y-42248D02*
X76777Y-42220D01*
X76777Y-42160D01*
X76762Y-42128D01*
X76732Y-42110D01*
X76717Y-42108D01*
X76687Y-42119D01*
X76672Y-42147D01*
X76672Y-42192D01*
X76657Y-42220D01*
X76627Y-42231D01*
X76612Y-42230D01*
X76582Y-42211D01*
X76567Y-42179D01*
X76567Y-42134D01*
X76582Y-42106D01*
X76762Y-41858D02*
X76777Y-41890D01*
X76777Y-41950D01*
X76762Y-41978D01*
X76732Y-41990D01*
X76612Y-41975D01*
X76582Y-41956D01*
X76567Y-41924D01*
X76567Y-41864D01*
X76582Y-41836D01*
X76612Y-41825D01*
X76642Y-41828D01*
X76672Y-41982D01*
X76567Y-41684D02*
X76777Y-41710D01*
X76597Y-41688D02*
X76582Y-41671D01*
X76567Y-41639D01*
X76567Y-41594D01*
X76582Y-41566D01*
X76612Y-41555D01*
X76777Y-41575D01*
X76762Y-41438D02*
X76777Y-41410D01*
X76777Y-41350D01*
X76762Y-41318D01*
X76732Y-41300D01*
X76717Y-41298D01*
X76687Y-41309D01*
X76672Y-41337D01*
X76672Y-41382D01*
X76657Y-41410D01*
X76627Y-41421D01*
X76612Y-41420D01*
X76582Y-41401D01*
X76567Y-41369D01*
X76567Y-41324D01*
X76582Y-41296D01*
X76777Y-41125D02*
X76762Y-41153D01*
X76747Y-41166D01*
X76717Y-41178D01*
X76627Y-41166D01*
X76597Y-41148D01*
X76582Y-41131D01*
X76567Y-41099D01*
X76567Y-41054D01*
X76582Y-41026D01*
X76597Y-41013D01*
X76627Y-41001D01*
X76717Y-41013D01*
X76747Y-41031D01*
X76762Y-41048D01*
X76777Y-41080D01*
X76777Y-41125D01*
X76777Y-40885D02*
X76567Y-40859D01*
X76627Y-40866D02*
X76597Y-40848D01*
X76582Y-40831D01*
X76567Y-40799D01*
X76567Y-40769D01*
X76762Y-40703D02*
X76777Y-40675D01*
X76777Y-40615D01*
X76762Y-40583D01*
X76732Y-40565D01*
X76717Y-40563D01*
X76687Y-40574D01*
X76672Y-40602D01*
X76672Y-40647D01*
X76657Y-40675D01*
X76627Y-40686D01*
X76612Y-40685D01*
X76582Y-40666D01*
X76567Y-40634D01*
X76567Y-40589D01*
X76582Y-40561D01*
X56103Y-28773D02*
X56064Y-29088D01*
X55944Y-29088D01*
X55916Y-29073D01*
X55903Y-29058D01*
X55891Y-29028D01*
X55897Y-28983D01*
X55916Y-28953D01*
X55933Y-28938D01*
X55964Y-28923D01*
X56084Y-28923D01*
X55788Y-28773D02*
X55762Y-28983D01*
X55749Y-29088D02*
X55766Y-29073D01*
X55753Y-29058D01*
X55736Y-29073D01*
X55749Y-29088D01*
X55753Y-29058D01*
X55612Y-28983D02*
X55638Y-28773D01*
X55616Y-28953D02*
X55599Y-28968D01*
X55567Y-28983D01*
X55522Y-28983D01*
X55494Y-28968D01*
X55483Y-28938D01*
X55503Y-28773D01*
X55117Y-28983D02*
X55083Y-28773D01*
X55004Y-28923D01*
X54963Y-28773D01*
X54877Y-28983D01*
X54783Y-28773D02*
X54757Y-28983D01*
X54744Y-29088D02*
X54761Y-29073D01*
X54748Y-29058D01*
X54731Y-29073D01*
X54744Y-29088D01*
X54748Y-29058D01*
X54652Y-28983D02*
X54532Y-28983D01*
X54594Y-29088D02*
X54628Y-28818D01*
X54616Y-28788D01*
X54588Y-28773D01*
X54558Y-28773D01*
X54453Y-28773D02*
X54414Y-29088D01*
X54318Y-28773D02*
X54298Y-28938D01*
X54309Y-28968D01*
X54337Y-28983D01*
X54382Y-28983D01*
X54414Y-28968D01*
X54431Y-28953D01*
X53947Y-28983D02*
X53827Y-28983D01*
X53928Y-28773D02*
X53894Y-29043D01*
X53876Y-29073D01*
X53844Y-29088D01*
X53814Y-29088D01*
X53748Y-28773D02*
X53722Y-28983D01*
X53709Y-29088D02*
X53726Y-29073D01*
X53713Y-29058D01*
X53696Y-29073D01*
X53709Y-29088D01*
X53713Y-29058D01*
X53553Y-28773D02*
X53581Y-28788D01*
X53593Y-28818D01*
X53559Y-29088D01*
X53452Y-28983D02*
X53332Y-28983D01*
X53394Y-29088D02*
X53428Y-28818D01*
X53416Y-28788D01*
X53388Y-28773D01*
X53358Y-28773D01*
X53131Y-28788D02*
X53163Y-28773D01*
X53223Y-28773D01*
X53251Y-28788D01*
X53263Y-28818D01*
X53248Y-28938D01*
X53229Y-28968D01*
X53197Y-28983D01*
X53137Y-28983D01*
X53109Y-28968D01*
X53098Y-28938D01*
X53101Y-28908D01*
X53255Y-28878D01*
X52983Y-28773D02*
X52957Y-28983D01*
X52964Y-28923D02*
X52946Y-28953D01*
X52929Y-28968D01*
X52897Y-28983D01*
X52867Y-28983D01*
X52522Y-28983D02*
X52293Y-28893D01*
X52544Y-28803D01*
X51931Y-28788D02*
X51888Y-28773D01*
X51813Y-28773D01*
X51781Y-28788D01*
X51764Y-28803D01*
X51746Y-28833D01*
X51742Y-28863D01*
X51753Y-28893D01*
X51766Y-28908D01*
X51794Y-28923D01*
X51853Y-28938D01*
X51881Y-28953D01*
X51894Y-28968D01*
X51905Y-28998D01*
X51901Y-29028D01*
X51883Y-29058D01*
X51866Y-29073D01*
X51834Y-29088D01*
X51759Y-29088D01*
X51716Y-29073D01*
X51622Y-28983D02*
X51588Y-28773D01*
X51509Y-28923D01*
X51468Y-28773D01*
X51382Y-28983D01*
X51288Y-28773D02*
X51262Y-28983D01*
X51249Y-29088D02*
X51266Y-29073D01*
X51253Y-29058D01*
X51236Y-29073D01*
X51249Y-29088D01*
X51253Y-29058D01*
X51157Y-28983D02*
X51037Y-28983D01*
X51099Y-29088D02*
X51133Y-28818D01*
X51121Y-28788D01*
X51093Y-28773D01*
X51063Y-28773D01*
X50821Y-28788D02*
X50853Y-28773D01*
X50913Y-28773D01*
X50941Y-28788D01*
X50954Y-28803D01*
X50966Y-28833D01*
X50954Y-28923D01*
X50936Y-28953D01*
X50919Y-28968D01*
X50887Y-28983D01*
X50827Y-28983D01*
X50799Y-28968D01*
X50688Y-28773D02*
X50649Y-29088D01*
X50553Y-28773D02*
X50533Y-28938D01*
X50544Y-28968D01*
X50572Y-28983D01*
X50617Y-28983D01*
X50649Y-28968D01*
X50666Y-28953D01*
X50281Y-28788D02*
X50313Y-28773D01*
X50373Y-28773D01*
X50401Y-28788D01*
X50413Y-28818D01*
X50398Y-28938D01*
X50379Y-28968D01*
X50347Y-28983D01*
X50287Y-28983D01*
X50259Y-28968D01*
X50248Y-28938D01*
X50251Y-28908D01*
X50405Y-28878D01*
X50146Y-28788D02*
X50118Y-28773D01*
X50058Y-28773D01*
X50026Y-28788D01*
X50008Y-28818D01*
X50006Y-28833D01*
X50017Y-28863D01*
X50045Y-28878D01*
X50090Y-28878D01*
X50118Y-28893D01*
X50129Y-28923D01*
X50128Y-28938D01*
X50109Y-28968D01*
X50077Y-28983D01*
X50032Y-28983D01*
X50004Y-28968D01*
X36713Y-35608D02*
X36713Y-35758D01*
X36623Y-35567D02*
X36938Y-35711D01*
X36623Y-35777D01*
X36638Y-36019D02*
X36623Y-35987D01*
X36623Y-35927D01*
X36638Y-35899D01*
X36653Y-35886D01*
X36683Y-35874D01*
X36773Y-35886D01*
X36803Y-35904D01*
X36818Y-35921D01*
X36833Y-35953D01*
X36833Y-36013D01*
X36818Y-36041D01*
X36833Y-36133D02*
X36833Y-36253D01*
X36938Y-36191D02*
X36668Y-36157D01*
X36638Y-36169D01*
X36623Y-36197D01*
X36623Y-36227D01*
X36623Y-36332D02*
X36833Y-36358D01*
X36938Y-36371D02*
X36923Y-36354D01*
X36908Y-36367D01*
X36923Y-36384D01*
X36938Y-36371D01*
X36908Y-36367D01*
X36833Y-36478D02*
X36623Y-36527D01*
X36833Y-36628D01*
X36623Y-36857D02*
X36788Y-36877D01*
X36818Y-36866D01*
X36833Y-36838D01*
X36833Y-36778D01*
X36818Y-36746D01*
X36638Y-36859D02*
X36623Y-36827D01*
X36623Y-36752D01*
X36638Y-36724D01*
X36668Y-36712D01*
X36698Y-36716D01*
X36728Y-36735D01*
X36743Y-36767D01*
X36743Y-36842D01*
X36758Y-36874D01*
X36833Y-36988D02*
X36833Y-37108D01*
X36938Y-37046D02*
X36668Y-37012D01*
X36638Y-37024D01*
X36623Y-37052D01*
X36623Y-37082D01*
X36623Y-37187D02*
X36833Y-37213D01*
X36938Y-37226D02*
X36923Y-37209D01*
X36908Y-37222D01*
X36923Y-37239D01*
X36938Y-37226D01*
X36908Y-37222D01*
X36623Y-37382D02*
X36638Y-37354D01*
X36653Y-37341D01*
X36683Y-37329D01*
X36773Y-37341D01*
X36803Y-37359D01*
X36818Y-37376D01*
X36833Y-37408D01*
X36833Y-37453D01*
X36818Y-37481D01*
X36803Y-37494D01*
X36773Y-37506D01*
X36683Y-37494D01*
X36653Y-37476D01*
X36638Y-37459D01*
X36623Y-37427D01*
X36623Y-37382D01*
X36833Y-37648D02*
X36623Y-37622D01*
X36803Y-37644D02*
X36818Y-37661D01*
X36833Y-37693D01*
X36833Y-37738D01*
X36818Y-37766D01*
X36788Y-37777D01*
X36623Y-37757D01*
X36638Y-38134D02*
X36623Y-38162D01*
X36623Y-38222D01*
X36638Y-38254D01*
X36668Y-38272D01*
X36683Y-38274D01*
X36713Y-38263D01*
X36728Y-38235D01*
X36728Y-38190D01*
X36743Y-38162D01*
X36773Y-38151D01*
X36788Y-38152D01*
X36818Y-38171D01*
X36833Y-38203D01*
X36833Y-38248D01*
X36818Y-38276D01*
X36623Y-38402D02*
X36833Y-38428D01*
X36938Y-38441D02*
X36923Y-38424D01*
X36908Y-38437D01*
X36923Y-38454D01*
X36938Y-38441D01*
X36908Y-38437D01*
X36833Y-38713D02*
X36578Y-38681D01*
X36548Y-38662D01*
X36533Y-38645D01*
X36518Y-38614D01*
X36518Y-38569D01*
X36533Y-38540D01*
X36638Y-38689D02*
X36623Y-38657D01*
X36623Y-38597D01*
X36638Y-38569D01*
X36653Y-38556D01*
X36683Y-38544D01*
X36773Y-38556D01*
X36803Y-38574D01*
X36818Y-38591D01*
X36833Y-38623D01*
X36833Y-38683D01*
X36818Y-38711D01*
X36833Y-38863D02*
X36623Y-38837D01*
X36803Y-38859D02*
X36818Y-38876D01*
X36833Y-38908D01*
X36833Y-38953D01*
X36818Y-38981D01*
X36788Y-38992D01*
X36623Y-38972D01*
X36623Y-39257D02*
X36788Y-39277D01*
X36818Y-39266D01*
X36833Y-39238D01*
X36833Y-39178D01*
X36818Y-39146D01*
X36638Y-39259D02*
X36623Y-39227D01*
X36623Y-39152D01*
X36638Y-39124D01*
X36668Y-39112D01*
X36698Y-39116D01*
X36728Y-39135D01*
X36743Y-39167D01*
X36743Y-39242D01*
X36758Y-39274D01*
X36623Y-39452D02*
X36638Y-39424D01*
X36668Y-39412D01*
X36938Y-39446D01*
X36638Y-39559D02*
X36623Y-39587D01*
X36623Y-39647D01*
X36638Y-39679D01*
X36668Y-39697D01*
X36683Y-39699D01*
X36713Y-39688D01*
X36728Y-39660D01*
X36728Y-39615D01*
X36743Y-39587D01*
X36773Y-39576D01*
X36788Y-39577D01*
X36818Y-39596D01*
X36833Y-39628D01*
X36833Y-39673D01*
X36818Y-39701D01*
X36833Y-40093D02*
X36743Y-40322D01*
X36653Y-40071D01*
X36623Y-40847D02*
X36623Y-40697D01*
X36938Y-40736D01*
X36623Y-40952D02*
X36833Y-40978D01*
X36938Y-40991D02*
X36923Y-40974D01*
X36908Y-40987D01*
X36923Y-41004D01*
X36938Y-40991D01*
X36908Y-40987D01*
X36833Y-41263D02*
X36578Y-41231D01*
X36548Y-41212D01*
X36533Y-41195D01*
X36518Y-41164D01*
X36518Y-41119D01*
X36533Y-41090D01*
X36638Y-41239D02*
X36623Y-41207D01*
X36623Y-41147D01*
X36638Y-41119D01*
X36653Y-41106D01*
X36683Y-41094D01*
X36773Y-41106D01*
X36803Y-41124D01*
X36818Y-41141D01*
X36833Y-41173D01*
X36833Y-41233D01*
X36818Y-41261D01*
X36623Y-41387D02*
X36938Y-41426D01*
X36623Y-41522D02*
X36788Y-41542D01*
X36818Y-41531D01*
X36833Y-41503D01*
X36833Y-41458D01*
X36818Y-41426D01*
X36803Y-41409D01*
X36833Y-41653D02*
X36833Y-41773D01*
X36938Y-41711D02*
X36668Y-41677D01*
X36638Y-41689D01*
X36623Y-41717D01*
X36623Y-41747D01*
X36638Y-41839D02*
X36623Y-41867D01*
X36623Y-41927D01*
X36638Y-41959D01*
X36668Y-41977D01*
X36683Y-41979D01*
X36713Y-41968D01*
X36728Y-41940D01*
X36728Y-41895D01*
X36743Y-41867D01*
X36773Y-41856D01*
X36788Y-41857D01*
X36818Y-41876D01*
X36833Y-41908D01*
X36833Y-41953D01*
X36818Y-41981D01*
M02*
