G04 (created by PCBNEW-RS274X (2010-11-03 BZR 2592)-stable) date Sat 17 Mar 2012 17:18:43 COT*
G01*
G70*
G90*
%MOIN*%
G04 Gerber Fmt 3.4, Leading zero omitted, Abs format*
%FSLAX34Y34*%
G04 APERTURE LIST*
%ADD10C,0.006000*%
%ADD11R,0.083000X0.091000*%
%ADD12O,0.079100X0.098700*%
%ADD13C,0.088900*%
%ADD14C,0.098700*%
%ADD15R,0.091000X0.083000*%
%ADD16R,0.106600X0.080000*%
%ADD17O,0.106600X0.080000*%
%ADD18R,0.080000X0.106600*%
%ADD19O,0.080000X0.106600*%
%ADD20R,0.138100X0.138100*%
%ADD21C,0.138100*%
%ADD22R,0.071200X0.079000*%
%ADD23R,0.079000X0.071200*%
%ADD24R,0.110600X0.098700*%
%ADD25O,0.177500X0.098700*%
%ADD26O,0.098700X0.177500*%
%ADD27O,0.098700X0.197200*%
%ADD28R,0.090000X0.090000*%
%ADD29C,0.090000*%
%ADD30R,0.370000X0.370000*%
G04 APERTURE END LIST*
G54D10*
G54D11*
X79000Y-24500D03*
X77900Y-24500D03*
X79000Y-26550D03*
X77900Y-26550D03*
X79050Y-28650D03*
X77950Y-28650D03*
X78950Y-30700D03*
X77850Y-30700D03*
X78950Y-32700D03*
X77850Y-32700D03*
X79100Y-34600D03*
X78000Y-34600D03*
G54D12*
X65100Y-44650D03*
X66100Y-44650D03*
X67100Y-44650D03*
G54D13*
X53700Y-45150D03*
X54450Y-46150D03*
X55200Y-45150D03*
G54D14*
X66700Y-47100D03*
X65700Y-47100D03*
G54D15*
X52550Y-46250D03*
X52550Y-45150D03*
G54D11*
X41200Y-30000D03*
X42300Y-30000D03*
X62450Y-47250D03*
X61350Y-47250D03*
G54D16*
X74300Y-47400D03*
G54D17*
X74300Y-46400D03*
X74300Y-45400D03*
X74300Y-44400D03*
X74300Y-43400D03*
X74300Y-42400D03*
X74300Y-41400D03*
X74300Y-40400D03*
X74300Y-39400D03*
G54D16*
X73300Y-47400D03*
G54D17*
X73300Y-46400D03*
X73300Y-45400D03*
X73300Y-44400D03*
X73300Y-43400D03*
X73300Y-42400D03*
X73300Y-41400D03*
X73300Y-40400D03*
X73300Y-39400D03*
G54D16*
X73300Y-38400D03*
G54D17*
X73300Y-37400D03*
X73300Y-36400D03*
X73300Y-35400D03*
X73300Y-34400D03*
X73300Y-33400D03*
X73300Y-32400D03*
X73300Y-31400D03*
X73300Y-30400D03*
G54D16*
X74300Y-38400D03*
G54D17*
X74300Y-37400D03*
X74300Y-36400D03*
X74300Y-35400D03*
X74300Y-34400D03*
X74300Y-33400D03*
X74300Y-32400D03*
X74300Y-31400D03*
X74300Y-30400D03*
G54D18*
X56300Y-49400D03*
G54D19*
X57300Y-49400D03*
X58300Y-49400D03*
X59300Y-49400D03*
X60300Y-49400D03*
X61300Y-49400D03*
X62300Y-49400D03*
X63300Y-49400D03*
G54D18*
X65300Y-49400D03*
G54D19*
X66300Y-49400D03*
X67300Y-49400D03*
X68300Y-49400D03*
X69300Y-49400D03*
X70300Y-49400D03*
X71300Y-49400D03*
X72300Y-49400D03*
G54D18*
X45700Y-30400D03*
G54D19*
X46700Y-30400D03*
X47700Y-30400D03*
X48700Y-30400D03*
X49700Y-30400D03*
X50700Y-30400D03*
X51700Y-30400D03*
X52700Y-30400D03*
G54D18*
X54300Y-30400D03*
G54D19*
X55300Y-30400D03*
X56300Y-30400D03*
X57300Y-30400D03*
X58300Y-30400D03*
X59300Y-30400D03*
X60300Y-30400D03*
X61300Y-30400D03*
G54D18*
X63300Y-30400D03*
G54D19*
X64300Y-30400D03*
X65300Y-30400D03*
X66300Y-30400D03*
X67300Y-30400D03*
X68300Y-30400D03*
X69300Y-30400D03*
X70300Y-30400D03*
G54D18*
X61150Y-34200D03*
G54D19*
X62150Y-34200D03*
X63150Y-34200D03*
X64150Y-34200D03*
X65150Y-34200D03*
G54D20*
X73150Y-56100D03*
G54D21*
X71150Y-56100D03*
X69150Y-56100D03*
X67150Y-56100D03*
X65150Y-56100D03*
X63150Y-56100D03*
X61150Y-56100D03*
X59150Y-56100D03*
G54D20*
X33125Y-44675D03*
G54D21*
X33125Y-42675D03*
X33125Y-40675D03*
X33125Y-38675D03*
X33125Y-36675D03*
X33125Y-34675D03*
X33125Y-32675D03*
X33125Y-30675D03*
G54D20*
X81450Y-38200D03*
G54D21*
X81450Y-40200D03*
X81450Y-42200D03*
X81450Y-44200D03*
X81450Y-46200D03*
X81450Y-48200D03*
X81450Y-50200D03*
X81450Y-52200D03*
G54D20*
X46300Y-24100D03*
G54D21*
X48300Y-24100D03*
X50300Y-24100D03*
X52300Y-24100D03*
X54300Y-24100D03*
X56300Y-24100D03*
X58300Y-24100D03*
X60300Y-24100D03*
G54D20*
X50650Y-56150D03*
G54D21*
X48650Y-56150D03*
X46650Y-56150D03*
X44650Y-56150D03*
G54D20*
X58100Y-44700D03*
G54D21*
X60100Y-44700D03*
X62100Y-44700D03*
G54D20*
X68950Y-24100D03*
G54D21*
X70950Y-24100D03*
G54D20*
X40750Y-56150D03*
G54D21*
X38750Y-56150D03*
G54D20*
X40900Y-24200D03*
G54D21*
X42900Y-24200D03*
G54D20*
X63700Y-24150D03*
G54D21*
X65700Y-24150D03*
G54D20*
X55900Y-56150D03*
G54D21*
X53900Y-56150D03*
G54D20*
X33150Y-49050D03*
G54D21*
X33150Y-47050D03*
G54D22*
X57775Y-47300D03*
X58525Y-47300D03*
X59475Y-47300D03*
X60225Y-47300D03*
G54D11*
X57700Y-28200D03*
X58800Y-28200D03*
X55700Y-26500D03*
X56800Y-26500D03*
X55700Y-28200D03*
X56800Y-28200D03*
X53700Y-26500D03*
X54800Y-26500D03*
X53700Y-28200D03*
X54800Y-28200D03*
X51700Y-26500D03*
X52800Y-26500D03*
X51700Y-28200D03*
X52800Y-28200D03*
X49700Y-26500D03*
X50800Y-26500D03*
X49700Y-28200D03*
X50800Y-28200D03*
X47700Y-26500D03*
X48800Y-26500D03*
X47700Y-28200D03*
X48800Y-28200D03*
X45700Y-26500D03*
X46800Y-26500D03*
X45700Y-28200D03*
X46800Y-28200D03*
G54D15*
X35525Y-31225D03*
X35525Y-30125D03*
X35525Y-33225D03*
X35525Y-32125D03*
X35525Y-35225D03*
X35525Y-34125D03*
X35525Y-37225D03*
X35525Y-36125D03*
X35525Y-39225D03*
X35525Y-38125D03*
X35525Y-41225D03*
X35525Y-40125D03*
X35525Y-43225D03*
X35525Y-42125D03*
G54D11*
X39250Y-52300D03*
X38150Y-52300D03*
X41250Y-52300D03*
X40150Y-52300D03*
X59700Y-53700D03*
X58600Y-53700D03*
X59700Y-52000D03*
X58600Y-52000D03*
X61700Y-53700D03*
X60600Y-53700D03*
X61700Y-52000D03*
X60600Y-52000D03*
X63700Y-53700D03*
X62600Y-53700D03*
X63700Y-52000D03*
X62600Y-52000D03*
X65700Y-53700D03*
X64600Y-53700D03*
X65700Y-52000D03*
X64600Y-52000D03*
X67700Y-53700D03*
X66600Y-53700D03*
X67700Y-52000D03*
X66600Y-52000D03*
X69700Y-53700D03*
X68600Y-53700D03*
X69700Y-52000D03*
X68600Y-52000D03*
X71700Y-53700D03*
X70600Y-53700D03*
X71700Y-52000D03*
X70600Y-52000D03*
X73700Y-53700D03*
X72600Y-53700D03*
X73700Y-52000D03*
X72600Y-52000D03*
X59700Y-26500D03*
X60800Y-26500D03*
X59700Y-28200D03*
X60800Y-28200D03*
X57700Y-26500D03*
X58800Y-26500D03*
G54D15*
X77350Y-37650D03*
X77350Y-38750D03*
X79050Y-37650D03*
X79050Y-38750D03*
X77350Y-39650D03*
X77350Y-40750D03*
X79050Y-39650D03*
X79050Y-40750D03*
X77350Y-41650D03*
X77350Y-42750D03*
X79050Y-41650D03*
X79050Y-42750D03*
X77350Y-43650D03*
X77350Y-44750D03*
X79050Y-43650D03*
X79050Y-44750D03*
X77350Y-45650D03*
X77350Y-46750D03*
X79050Y-45650D03*
X79050Y-46750D03*
X77350Y-47650D03*
X77350Y-48750D03*
X79050Y-47650D03*
X79050Y-48750D03*
X77350Y-49650D03*
X77350Y-50750D03*
X79050Y-49650D03*
X79050Y-50750D03*
X77350Y-51650D03*
X77350Y-52750D03*
X79050Y-51650D03*
X79050Y-52750D03*
X35525Y-45225D03*
X35525Y-44125D03*
G54D22*
X52075Y-27350D03*
X52825Y-27350D03*
X50075Y-27350D03*
X50825Y-27350D03*
X48075Y-27350D03*
X48825Y-27350D03*
X46075Y-27350D03*
X46825Y-27350D03*
G54D23*
X78200Y-52025D03*
X78200Y-52775D03*
X78200Y-50025D03*
X78200Y-50775D03*
X78200Y-48025D03*
X78200Y-48775D03*
X78200Y-46025D03*
X78200Y-46775D03*
X78200Y-44025D03*
X78200Y-44775D03*
X78200Y-42025D03*
X78200Y-42775D03*
X78200Y-40025D03*
X78200Y-40775D03*
X78200Y-38025D03*
X78200Y-38775D03*
G54D22*
X54075Y-27350D03*
X54825Y-27350D03*
X56075Y-27350D03*
X56825Y-27350D03*
X58075Y-27350D03*
X58825Y-27350D03*
X60075Y-27350D03*
X60825Y-27350D03*
X73325Y-52850D03*
X72575Y-52850D03*
X71325Y-52850D03*
X70575Y-52850D03*
X69325Y-52850D03*
X68575Y-52850D03*
X67325Y-52850D03*
X66575Y-52850D03*
X65325Y-52850D03*
X64575Y-52850D03*
X63325Y-52850D03*
X62575Y-52850D03*
X61325Y-52850D03*
X60575Y-52850D03*
X59375Y-52850D03*
X58625Y-52850D03*
G54D18*
X47300Y-49400D03*
G54D19*
X48300Y-49400D03*
X49300Y-49400D03*
X50300Y-49400D03*
X51300Y-49400D03*
X52300Y-49400D03*
X53300Y-49400D03*
X54300Y-49400D03*
G54D20*
X81425Y-54725D03*
G54D21*
X81425Y-56725D03*
G54D18*
X50300Y-48100D03*
G54D19*
X49300Y-48100D03*
G54D16*
X72300Y-39400D03*
G54D17*
X72300Y-38400D03*
X72300Y-37400D03*
X72300Y-36400D03*
X72300Y-35400D03*
X72300Y-34400D03*
X72300Y-33400D03*
X72300Y-32400D03*
X72300Y-31400D03*
X72300Y-30400D03*
G54D16*
X75300Y-39400D03*
G54D17*
X75300Y-38400D03*
X75300Y-37400D03*
X75300Y-36400D03*
X75300Y-35400D03*
X75300Y-34400D03*
X75300Y-33400D03*
X75300Y-32400D03*
X75300Y-31400D03*
X75300Y-30400D03*
G54D15*
X60300Y-32550D03*
X60300Y-31450D03*
X61300Y-32550D03*
X61300Y-31450D03*
X65300Y-32550D03*
X65300Y-31450D03*
X66300Y-32550D03*
X66300Y-31450D03*
G54D20*
X81450Y-24500D03*
G54D21*
X81450Y-26500D03*
X81450Y-28500D03*
X81450Y-30500D03*
X81450Y-32500D03*
X81450Y-34500D03*
G54D11*
X69200Y-28450D03*
X68100Y-28450D03*
X69500Y-26750D03*
X68400Y-26750D03*
X71375Y-28450D03*
X70275Y-28450D03*
X71600Y-26750D03*
X70500Y-26750D03*
G54D22*
X68375Y-27600D03*
X69125Y-27600D03*
X70475Y-27600D03*
X71225Y-27600D03*
G54D11*
X68650Y-38425D03*
X69750Y-38425D03*
X68650Y-39425D03*
X69750Y-39425D03*
X68650Y-40475D03*
X69750Y-40475D03*
X68650Y-41475D03*
X69750Y-41475D03*
G54D20*
X33125Y-56575D03*
G54D21*
X33125Y-54575D03*
G54D14*
X53075Y-39950D03*
X52075Y-39950D03*
X56200Y-39950D03*
X55200Y-39950D03*
X59350Y-39925D03*
X58350Y-39925D03*
X62350Y-39950D03*
X61350Y-39950D03*
G54D24*
X37350Y-28716D03*
X37350Y-27134D03*
G54D25*
X35428Y-26662D03*
G54D26*
X34148Y-24575D03*
G54D27*
X36511Y-24575D03*
G54D28*
X41150Y-30975D03*
G54D29*
X40150Y-30975D03*
X39150Y-30975D03*
G54D30*
X40150Y-37475D03*
G54D18*
X59125Y-43425D03*
G54D19*
X60125Y-43425D03*
X61125Y-43425D03*
M02*
