M48
;DRILL file {PCBnew (2010-11-03 BZR 2592)-stable} date Sat 17 Mar 2012 17:18:51 COT
;FORMAT={-:-/ absolute / inch / decimal}
FMAT,2
INCH,TZ
T1C0.032
T2C0.039
T3C0.045
T4C0.049
T5C0.120
%
G90
G05
M72
T1
X5.208Y-3.995
X5.308Y-3.995
X5.370Y-4.515
X5.445Y-4.615
X5.520Y-3.995
X5.520Y-4.515
X5.620Y-3.995
X5.835Y-3.993
X5.935Y-3.993
X6.135Y-3.995
X6.235Y-3.995
X6.510Y-4.465
X6.570Y-4.710
X6.610Y-4.465
X6.670Y-4.710
X6.710Y-4.465
T2
X4.570Y-3.040
X4.670Y-3.040
X4.730Y-4.940
X4.770Y-3.040
X4.830Y-4.940
X4.870Y-3.040
X4.930Y-4.810
X4.930Y-4.940
X4.970Y-3.040
X5.030Y-4.810
X5.030Y-4.940
X5.070Y-3.040
X5.130Y-4.940
X5.170Y-3.040
X5.230Y-4.940
X5.270Y-3.040
X5.330Y-4.940
X5.430Y-3.040
X5.430Y-4.940
X5.530Y-3.040
X5.630Y-3.040
X5.630Y-4.940
X5.730Y-3.040
X5.730Y-4.940
X5.830Y-3.040
X5.830Y-4.940
X5.913Y-4.343
X5.930Y-3.040
X5.930Y-4.940
X6.013Y-4.343
X6.030Y-3.040
X6.030Y-4.940
X6.113Y-4.343
X6.115Y-3.420
X6.130Y-3.040
X6.130Y-4.940
X6.215Y-3.420
X6.230Y-4.940
X6.315Y-3.420
X6.330Y-3.040
X6.330Y-4.940
X6.415Y-3.420
X6.430Y-3.040
X6.515Y-3.420
X6.530Y-3.040
X6.530Y-4.940
X6.630Y-3.040
X6.630Y-4.940
X6.730Y-3.040
X6.730Y-4.940
X6.830Y-3.040
X6.830Y-4.940
X6.930Y-3.040
X6.930Y-4.940
X7.030Y-3.040
X7.030Y-4.940
X7.130Y-4.940
X7.230Y-3.040
X7.230Y-3.140
X7.230Y-3.240
X7.230Y-3.340
X7.230Y-3.440
X7.230Y-3.540
X7.230Y-3.640
X7.230Y-3.740
X7.230Y-3.840
X7.230Y-3.940
X7.230Y-4.940
X7.330Y-3.040
X7.330Y-3.140
X7.330Y-3.240
X7.330Y-3.340
X7.330Y-3.440
X7.330Y-3.540
X7.330Y-3.640
X7.330Y-3.740
X7.330Y-3.840
X7.330Y-3.940
X7.330Y-4.040
X7.330Y-4.140
X7.330Y-4.240
X7.330Y-4.340
X7.330Y-4.440
X7.330Y-4.540
X7.330Y-4.640
X7.330Y-4.740
X7.430Y-3.040
X7.430Y-3.140
X7.430Y-3.240
X7.430Y-3.340
X7.430Y-3.440
X7.430Y-3.540
X7.430Y-3.640
X7.430Y-3.740
X7.430Y-3.840
X7.430Y-3.940
X7.430Y-4.040
X7.430Y-4.140
X7.430Y-4.240
X7.430Y-4.340
X7.430Y-4.440
X7.430Y-4.540
X7.430Y-4.640
X7.430Y-4.740
X7.530Y-3.040
X7.530Y-3.140
X7.530Y-3.240
X7.530Y-3.340
X7.530Y-3.440
X7.530Y-3.540
X7.530Y-3.640
X7.530Y-3.740
X7.530Y-3.840
X7.530Y-3.940
T3
X3.915Y-3.098
X4.015Y-3.098
X4.115Y-3.098
T4
X3.312Y-3.068
X3.312Y-3.268
X3.312Y-3.468
X3.312Y-3.667
X3.312Y-3.868
X3.312Y-4.067
X3.312Y-4.268
X3.312Y-4.468
X3.312Y-5.458
X3.312Y-5.658
X3.315Y-4.705
X3.315Y-4.905
X3.875Y-5.615
X4.075Y-5.615
X4.090Y-2.420
X4.290Y-2.420
X4.465Y-5.615
X4.630Y-2.410
X4.665Y-5.615
X4.830Y-2.410
X4.865Y-5.615
X5.030Y-2.410
X5.065Y-5.615
X5.230Y-2.410
X5.390Y-5.615
X5.430Y-2.410
X5.590Y-5.615
X5.630Y-2.410
X5.810Y-4.470
X5.830Y-2.410
X5.915Y-5.610
X6.010Y-4.470
X6.030Y-2.410
X6.115Y-5.610
X6.210Y-4.470
X6.315Y-5.610
X6.370Y-2.415
X6.515Y-5.610
X6.570Y-2.415
X6.715Y-5.610
X6.895Y-2.410
X6.915Y-5.610
X7.095Y-2.410
X7.115Y-5.610
X7.315Y-5.610
X8.143Y-5.473
X8.143Y-5.673
X8.145Y-2.450
X8.145Y-2.650
X8.145Y-2.850
X8.145Y-3.050
X8.145Y-3.250
X8.145Y-3.450
X8.145Y-3.820
X8.145Y-4.020
X8.145Y-4.220
X8.145Y-4.420
X8.145Y-4.620
X8.145Y-4.820
X8.145Y-5.020
X8.145Y-5.220
T5
X4.015Y-3.748
T2
X3.415Y-2.418G85X3.415Y-2.497
G05
X3.582Y-2.666G85X3.504Y-2.666
G05
X3.651Y-2.408G85X3.651Y-2.507
G05
T0
M30
